<?xml version="1.0" encoding="utf-8"?>
<!-- Generator: Adobe Illustrator 19.0.0, SVG Export Plug-In . SVG Version: 6.00 Build 0)  -->
<svg version="1.1" id="Layer_1" xmlns="http://www.w3.org/2000/svg" xmlns:xlink="http://www.w3.org/1999/xlink" x="0px" y="0px"
	 viewBox="-539 376 200.1 49" style="enable-background:new -539 376 200.1 49;" xml:space="preserve">
<style type="text/css">
	.st00{fill:#D9042C;}
</style>
<g id="XMLID_53_">
	<path id="XMLID_68_" class="st00" d="M-352.4,391l-2.9,8h-5.7c0-1,0-0.9,0-1.2c0-3.3-1.4-6.7-3.8-9.2c-2.5-2.6-5.9-4.1-9.3-4.1
		c-7.3,0-13.2,6-13.2,13.3c0,0.4,0,0.2,0,1.2h-6.9l0,0c0-0.1,0-0.2,0-0.3c0.1-1.4-0.2-2.9-0.7-4.3c-2.1-5.9-8.7-8.9-14.5-6.8
		c-4.7,1.7-7.6,6.3-7.5,11.1c0,0.1,0,0.2,0,0.3l0,0h-8l2.9-8h-6.6l-2.9,8h-5.3l0,0c0-0.1,0-0.2,0-0.3c0.1-1.4-0.2-2.9-0.7-4.3
		c-2.1-5.9-8.7-8.9-14.5-6.8c-5.9,2.1-8.9,8.7-6.8,14.6l8.2,22.8h13.5l-8.3-5.4l-3.6-10c1.6,0.1,3.2-0.1,4.8-0.7
		c1.7-0.6,3.2-1.7,4.4-3h25.4h0.6c3,3.2,7.8,4.6,12.2,3c1.7-0.6,3.2-1.7,4.4-3h0.6h45.5l3.4-9.1l8.9-5.9h-13.6V391z M-446.6,402.7
		c-2.4,0.9-5.1-0.4-6-2.8s0.4-5.1,2.8-6c2.4-0.9,5.1,0.4,6,2.8C-442.9,399.1-444.1,401.8-446.6,402.7z M-404,402.7
		c-2.4,0.9-5.1-0.4-6-2.8s0.4-5.1,2.8-6c2.4-0.9,5.1,0.4,6,2.8C-400.3,399.1-401.6,401.8-404,402.7z M-380.7,399
		c-0.1-1-0.1-0.8-0.1-1.2c0-3.6,2.9-6.6,6.5-6.6c3.7,0,6.5,3.5,6.5,6.6c0,0.4,0,0.2-0.1,1.2H-380.7z"/>
	<circle id="XMLID_79_" class="st00" cx="-347.3" cy="384.8" r="3.7"/>
	<circle id="XMLID_80_" class="st00" cx="-355.8" cy="384.8" r="3.7"/>
	<circle id="XMLID_81_" class="st00" cx="-427.4" cy="411.1" r="3.7"/>
	<circle id="XMLID_82_" class="st00" cx="-435.8" cy="411.1" r="3.7"/>
	<polygon id="XMLID_83_" class="st00" points="-477.5,399 -483.8,399 -477.8,382.2 -468.9,376 -482.4,376 -490.4,399 -498,399 
		-495.1,391 -501.7,391 -504.6,399 -508,399 -505.1,391 -511.7,391 -514.7,399 -518,399 -515.1,391 -521.7,391 -527,405.5 
		-531.1,394.2 -525.8,391 -539,391 -530.4,414 -523.7,414 -520.4,406 -473.5,406 -470,396.9 -461.1,391 -474.6,391 	"/>
	<circle id="XMLID_84_" class="st00" cx="-479.6" cy="411.1" r="3.7"/>
</g>
</svg>
