<?xml version="1.0" encoding="utf-8"?>
<!-- Generator: Adobe Illustrator 19.0.0, SVG Export Plug-In . SVG Version: 6.00 Build 0)  -->
<svg version="1.1" id="Layer_1" xmlns="http://www.w3.org/2000/svg" xmlns:xlink="http://www.w3.org/1999/xlink" x="0px" y="0px"
	 viewBox="0 0 300 300" style="enable-background:new 0 0 300 300;" xml:space="preserve">
<style type="text/css">
	.st0{fill:#D9042C;}
	.st1{clip-path:url(#XMLID_41_);fill:#F7F7F7;}
	.st2{fill:#F7F7F7;}
	.st3{clip-path:url(#XMLID_42_);fill:#F7F7F7;}
	.st4{clip-path:url(#XMLID_43_);fill:#F7F7F7;}
	.st5{clip-path:url(#XMLID_44_);fill:#F7F7F7;}
	.st6{clip-path:url(#XMLID_45_);fill:#F7F7F7;}
	.st7{font-family:'Calibri';}
	.st8{font-size:23.8657px;}
	.st9{clip-path:url(#XMLID_46_);fill:#F7F7F7;}
	.st10{clip-path:url(#XMLID_47_);fill:#F7F7F7;}
	.st11{clip-path:url(#XMLID_48_);fill:#F7F7F7;}
	.st12{clip-path:url(#XMLID_49_);fill:#6C0C22;}
	.st13{fill:#6C0C22;}
	.st14{clip-path:url(#XMLID_50_);fill:#F7F7F7;}
	.st15{clip-path:url(#XMLID_51_);fill:#F7F7F7;}
	.st16{clip-path:url(#XMLID_52_);fill:#F7F7F7;}
	.st17{clip-path:url(#XMLID_53_);fill:#F7F7F7;}
</style>
<circle id="XMLID_619_" class="st0" cx="150" cy="150" r="150"/>
<g id="XMLID_543_">
	<g id="XMLID_868_">
		<g id="XMLID_869_">
			<defs>
				<rect id="XMLID_876_" x="115.1" y="204.8" width="68" height="62"/>
			</defs>
			<clipPath id="XMLID_41_">
				<use xlink:href="#XMLID_876_"  style="overflow:visible;"/>
			</clipPath>
			<path id="XMLID_870_" class="st1" d="M120.2,230.8c1.6,1.2,3.3,2.1,5.1,3c0.8,0.4,1.7,0.7,2.5,1.1c1.7,0.7,2.6,1.4,3.8,2.5
				c0.5,0.4,0.5,0.3-0.1,0.2c-2-0.4-3.6,2.7-1.7,4.3c2,1.7,4.3,1.4,6.2-0.3c0.6-0.5,0.9-1.1,1.1-1.7c0.2-0.6,0.5-0.7,0.9-0.2
				c2.1,2.6,4,4.7,6.4,6c0.6,0.3,0.7,1,0.7,1.6v7.1c0,0.2,0.3,0.5,0.3,0.7c0.1,0.3,0,0.7-0.7,0.7h-4.7c-1.5,0-3,1.1-3,2.6v4.5
				c0,1.5,1.4,2.9,3,2.9h18.6c1.5,0,2.4-1.3,2.4-2.9v-4.5c0-1.5-0.8-2.6-2.4-2.6H154c-0.6,0-1-0.4-1-0.7c0-0.2,0-0.5,0-0.7v-7.1
				c0-0.6,0.5-1.3,1-1.6c2.4-1.2,4.6-3.3,6.7-6c0.4-0.5,0.7-0.4,0.9,0.2c0.2,0.6,0.6,1.2,1.1,1.7c1.9,1.6,4.2,1.9,6.2,0.3
				c2-1.6,0.3-4.7-1.7-4.3c-0.6,0.1-0.6,0.2-0.1-0.2c1.2-1,2.1-1.7,3.8-2.5c0.8-0.3,1.7-0.7,2.5-1.1c1.8-0.9,3.5-1.8,5.1-3
				c2.9-2.2,4.2-5.6,4.6-9c0.7-6.1-3.7-11.2-9.1-12.9c-0.6-0.2-1-0.8-1-1.4c0.1-0.7,0.1-1.1,0.1-1.7c0-0.6-0.5-0.9-1.1-0.9h-45.6
				c-0.6,0-1.1,0.3-1.1,0.9c0,0.6,0.1,1.2,0.1,1.9c0.1,0.6-0.4,1.2-1,1.4c-5.5,1.7-9.8,6.8-9.1,12.9
				C115.9,225.3,117.3,228.7,120.2,230.8L120.2,230.8z M166.1,231.1c2.6-5.4,4.7-11.4,5.9-16.8c0.1-0.6,0.7-1,1.3-0.7
				c5.6,2.4,7.8,10.3,1.6,14.2c-2.4,1.5-5.6,2.3-8.3,3.7C166,231.9,165.8,231.7,166.1,231.1L166.1,231.1z M149.7,211.8h3.3v26h-4
				v-22h0l-5.9,3.1l-0.9-3.3L149.7,211.8z M125.5,213.6c0.6-0.2,1.2,0.1,1.3,0.7c1.2,5.4,3.3,11.4,5.9,16.8c0.3,0.6,0.1,0.7-0.5,0.4
				c-2.7-1.4-5.9-2.3-8.3-3.7C117.7,223.9,119.9,216.1,125.5,213.6L125.5,213.6z M125.5,213.6"/>
		</g>
	</g>
	<g id="XMLID_542_">
		<g id="XMLID_810_">
			<g id="XMLID_811_">
				<rect id="XMLID_812_" x="52.1" y="85.8" class="st2" width="47" height="48"/>
			</g>
			<g id="XMLID_813_">
				<g id="XMLID_814_">
					<g id="XMLID_815_">
						<defs>
							<rect id="XMLID_819_" x="53.1" y="74.8" width="9" height="8"/>
						</defs>
						<clipPath id="XMLID_42_">
							<use xlink:href="#XMLID_819_"  style="overflow:visible;"/>
						</clipPath>
						<path id="XMLID_816_" class="st3" d="M62.4,78c0.1-0.1,0.1-0.2,0.1-0.3c0-0.1-0.1-0.2-0.3-0.2l-2.5-0.2
							c-0.1,0-0.2-0.1-0.3-0.2l-1-2.3c-0.1-0.1-0.2-0.2-0.3-0.2c-0.1,0-0.2,0.1-0.3,0.2l-1,2.3c0,0.1-0.1,0.2-0.3,0.2l-2.5,0.2
							c-0.1,0-0.2,0.1-0.3,0.2c0,0.1,0,0.3,0.1,0.3l1.9,1.6C56,79.8,56,79.9,56,80l-0.6,2.5c0,0.1,0,0.3,0.1,0.3
							c0.1,0.1,0.2,0.1,0.3,0l2.2-1.3c0.1-0.1,0.2-0.1,0.3,0l2.2,1.3c0.1,0.1,0.2,0.1,0.3,0c0.1-0.1,0.1-0.2,0.1-0.3L60.4,80
							c0-0.1,0-0.2,0.1-0.3L62.4,78z M62.4,78"/>
					</g>
				</g>
				<g id="XMLID_820_">
					<g id="XMLID_821_">
						<defs>
							<rect id="XMLID_825_" x="65.1" y="74.8" width="9" height="8"/>
						</defs>
						<clipPath id="XMLID_43_">
							<use xlink:href="#XMLID_825_"  style="overflow:visible;"/>
						</clipPath>
						<path id="XMLID_822_" class="st4" d="M74.3,78c0.1-0.1,0.1-0.2,0.1-0.3c0-0.1-0.1-0.2-0.3-0.2l-2.5-0.2
							c-0.1,0-0.2-0.1-0.3-0.2l-1-2.3c-0.1-0.1-0.2-0.2-0.3-0.2c-0.1,0-0.2,0.1-0.3,0.2l-1,2.3c0,0.1-0.1,0.2-0.3,0.2L66,77.5
							c-0.1,0-0.2,0.1-0.3,0.2c0,0.1,0,0.3,0.1,0.3l1.9,1.6c0.1,0.1,0.1,0.2,0.1,0.3l-0.6,2.5c0,0.1,0,0.3,0.1,0.3
							c0.1,0.1,0.2,0.1,0.3,0l2.2-1.3c0.1-0.1,0.2-0.1,0.3,0l2.2,1.3c0.1,0.1,0.2,0.1,0.3,0c0.1-0.1,0.1-0.2,0.1-0.3L72.3,80
							c0-0.1,0-0.2,0.1-0.3L74.3,78z M74.3,78"/>
					</g>
				</g>
				<g id="XMLID_826_">
					<g id="XMLID_827_">
						<defs>
							<rect id="XMLID_831_" x="77.1" y="74.8" width="9" height="8"/>
						</defs>
						<clipPath id="XMLID_44_">
							<use xlink:href="#XMLID_831_"  style="overflow:visible;"/>
						</clipPath>
						<path id="XMLID_828_" class="st5" d="M86.3,78c0.1-0.1,0.1-0.2,0.1-0.3c0-0.1-0.1-0.2-0.3-0.2l-2.5-0.2
							c-0.1,0-0.2-0.1-0.3-0.2l-1-2.3c-0.1-0.1-0.2-0.2-0.3-0.2c-0.1,0-0.2,0.1-0.3,0.2l-1,2.3c0,0.1-0.1,0.2-0.3,0.2L78,77.5
							c-0.1,0-0.2,0.1-0.3,0.2c0,0.1,0,0.3,0.1,0.3l1.9,1.6c0.1,0.1,0.1,0.2,0.1,0.3l-0.6,2.5c0,0.1,0,0.3,0.1,0.3
							c0.1,0.1,0.2,0.1,0.3,0l2.2-1.3c0.1-0.1,0.2-0.1,0.3,0l2.2,1.3c0.1,0.1,0.2,0.1,0.3,0c0.1-0.1,0.1-0.2,0.1-0.3L84.3,80
							c0-0.1,0-0.2,0.1-0.3L86.3,78z M86.3,78"/>
					</g>
				</g>
				<g id="XMLID_832_">
					<g id="XMLID_833_">
						<defs>
							<rect id="XMLID_837_" x="89.1" y="74.8" width="9" height="8"/>
						</defs>
						<clipPath id="XMLID_45_">
							<use xlink:href="#XMLID_837_"  style="overflow:visible;"/>
						</clipPath>
						<path id="XMLID_834_" class="st6" d="M98.2,78c0.1-0.1,0.1-0.2,0.1-0.3c0-0.1-0.1-0.2-0.3-0.2l-2.5-0.2
							c-0.1,0-0.2-0.1-0.3-0.2l-1-2.3c-0.1-0.1-0.2-0.2-0.3-0.2c-0.1,0-0.2,0.1-0.3,0.2l-1,2.3c0,0.1-0.1,0.2-0.3,0.2l-2.5,0.2
							c-0.1,0-0.2,0.1-0.3,0.2c0,0.1,0,0.3,0.1,0.3l1.9,1.6c0.1,0.1,0.1,0.2,0.1,0.3l-0.6,2.5c0,0.1,0,0.3,0.1,0.3
							c0.1,0.1,0.2,0.1,0.3,0l2.2-1.3c0.1-0.1,0.2-0.1,0.3,0l2.2,1.3c0.1,0.1,0.2,0.1,0.3,0c0.1-0.1,0.1-0.2,0.1-0.3L96.2,80
							c0-0.1,0-0.2,0.1-0.3L98.2,78z M98.2,78"/>
					</g>
				</g>
			</g>
			<text id="XMLID_838_" transform="matrix(1 0 0 1 76.6789 115.6725)" class="st0 st7 st8">2</text>
		</g>
		<g id="XMLID_839_">
			<g id="XMLID_840_">
				<rect id="XMLID_841_" x="199.1" y="85.8" class="st2" width="48" height="48"/>
			</g>
			<g id="XMLID_842_">
				<g id="XMLID_843_">
					<g id="XMLID_844_">
						<defs>
							<rect id="XMLID_848_" x="201.1" y="74.8" width="9" height="8"/>
						</defs>
						<clipPath id="XMLID_46_">
							<use xlink:href="#XMLID_848_"  style="overflow:visible;"/>
						</clipPath>
						<path id="XMLID_845_" class="st9" d="M210.1,78c0.1-0.1,0.1-0.2,0.1-0.3c0-0.1-0.1-0.2-0.3-0.2l-2.5-0.2
							c-0.1,0-0.2-0.1-0.3-0.2l-1-2.3c-0.1-0.1-0.2-0.2-0.3-0.2c-0.1,0-0.2,0.1-0.3,0.2l-1,2.3c0,0.1-0.1,0.2-0.3,0.2l-2.5,0.2
							c-0.1,0-0.2,0.1-0.3,0.2c0,0.1,0,0.3,0.1,0.3l1.9,1.6c0.1,0.1,0.1,0.2,0.1,0.3l-0.6,2.5c0,0.1,0,0.3,0.1,0.3
							c0.1,0.1,0.2,0.1,0.3,0l2.2-1.3c0.1-0.1,0.2-0.1,0.3,0l2.2,1.3c0.1,0.1,0.2,0.1,0.3,0c0.1-0.1,0.1-0.2,0.1-0.3l-0.6-2.5
							c0-0.1,0-0.2,0.1-0.3L210.1,78z M210.1,78"/>
					</g>
				</g>
				<g id="XMLID_849_">
					<g id="XMLID_850_">
						<defs>
							<rect id="XMLID_854_" x="213.1" y="74.8" width="9" height="8"/>
						</defs>
						<clipPath id="XMLID_47_">
							<use xlink:href="#XMLID_854_"  style="overflow:visible;"/>
						</clipPath>
						<path id="XMLID_851_" class="st10" d="M222,78c0.1-0.1,0.1-0.2,0.1-0.3c0-0.1-0.1-0.2-0.3-0.2l-2.5-0.2
							c-0.1,0-0.2-0.1-0.3-0.2l-1-2.3c-0.1-0.1-0.2-0.2-0.3-0.2c-0.1,0-0.2,0.1-0.3,0.2l-1,2.3c0,0.1-0.1,0.2-0.3,0.2l-2.5,0.2
							c-0.1,0-0.2,0.1-0.3,0.2c0,0.1,0,0.3,0.1,0.3l1.9,1.6c0.1,0.1,0.1,0.2,0.1,0.3l-0.6,2.5c0,0.1,0,0.3,0.1,0.3
							c0.1,0.1,0.2,0.1,0.3,0l2.2-1.3c0.1-0.1,0.2-0.1,0.3,0l2.2,1.3c0.1,0.1,0.2,0.1,0.3,0c0.1-0.1,0.1-0.2,0.1-0.3L220,80
							c0-0.1,0-0.2,0.1-0.3L222,78z M222,78"/>
					</g>
				</g>
				<g id="XMLID_855_">
					<g id="XMLID_856_">
						<defs>
							<rect id="XMLID_860_" x="225.1" y="74.8" width="9" height="8"/>
						</defs>
						<clipPath id="XMLID_48_">
							<use xlink:href="#XMLID_860_"  style="overflow:visible;"/>
						</clipPath>
						<path id="XMLID_857_" class="st11" d="M234,78c0.1-0.1,0.1-0.2,0.1-0.3c0-0.1-0.1-0.2-0.3-0.2l-2.5-0.2
							c-0.1,0-0.2-0.1-0.3-0.2l-1-2.3c-0.1-0.1-0.2-0.2-0.3-0.2c-0.1,0-0.2,0.1-0.3,0.2l-1,2.3c0,0.1-0.1,0.2-0.3,0.2l-2.5,0.2
							c-0.1,0-0.2,0.1-0.3,0.2c0,0.1,0,0.3,0.1,0.3l1.9,1.6c0.1,0.1,0.1,0.2,0.1,0.3l-0.6,2.5c0,0.1,0,0.3,0.1,0.3
							c0.1,0.1,0.2,0.1,0.3,0l2.2-1.3c0.1-0.1,0.2-0.1,0.3,0l2.2,1.3c0.1,0.1,0.2,0.1,0.3,0c0.1-0.1,0.1-0.2,0.1-0.3L232,80
							c0-0.1,0-0.2,0.1-0.3L234,78z M234,78"/>
					</g>
				</g>
				<g id="XMLID_861_">
					<g id="XMLID_862_">
						<defs>
							<rect id="XMLID_866_" x="237.1" y="74.8" width="9" height="8"/>
						</defs>
						<clipPath id="XMLID_49_">
							<use xlink:href="#XMLID_866_"  style="overflow:visible;"/>
						</clipPath>
						<path id="XMLID_863_" class="st12" d="M245.9,78c0.1-0.1,0.1-0.2,0.1-0.3c0-0.1-0.1-0.2-0.3-0.2l-2.5-0.2
							c-0.1,0-0.2-0.1-0.3-0.2l-1-2.3c-0.1-0.1-0.2-0.2-0.3-0.2c-0.1,0-0.2,0.1-0.3,0.2l-1,2.3c0,0.1-0.1,0.2-0.3,0.2l-2.5,0.2
							c-0.1,0-0.2,0.1-0.3,0.2c0,0.1,0,0.3,0.1,0.3l1.9,1.6c0.1,0.1,0.1,0.2,0.1,0.3l-0.6,2.5c0,0.1,0,0.3,0.1,0.3
							c0.1,0.1,0.2,0.1,0.3,0l2.2-1.3c0.1-0.1,0.2-0.1,0.3,0l2.2,1.3c0.1,0.1,0.2,0.1,0.3,0c0.1-0.1,0.1-0.2,0.1-0.3l-0.6-2.5
							c0-0.1,0-0.2,0.1-0.3L245.9,78z M245.9,78"/>
					</g>
				</g>
			</g>
			<text id="XMLID_867_" transform="matrix(1 0 0 1 224.384 115.6725)" class="st0 st7 st8">1</text>
		</g>
		<g id="XMLID_541_">
			<g id="XMLID_614_">
				<g id="XMLID_617_">
					<rect id="XMLID_618_" x="125.1" y="115.8" class="st13" width="48" height="48"/>
				</g>
				<g id="XMLID_615_">
					<g id="XMLID_616_">
						<g id="XMLID_687_">
							<defs>
								<rect id="XMLID_790_" x="127.1" y="104.8" width="8" height="8"/>
							</defs>
							<clipPath id="XMLID_50_">
								<use xlink:href="#XMLID_790_"  style="overflow:visible;"/>
							</clipPath>
							<path id="XMLID_787_" class="st14" d="M135.7,107.5c0.1-0.1,0.1-0.2,0.1-0.3c0-0.1-0.1-0.2-0.3-0.2l-2.5-0.2
								c-0.1,0-0.2-0.1-0.3-0.2l-1-2.3c-0.1-0.1-0.2-0.2-0.3-0.2c-0.1,0-0.2,0.1-0.3,0.2l-1,2.3c0,0.1-0.1,0.2-0.3,0.2l-2.5,0.2
								c-0.1,0-0.2,0.1-0.3,0.2c0,0.1,0,0.3,0.1,0.3l1.9,1.6c0.1,0.1,0.1,0.2,0.1,0.3l-0.6,2.5c0,0.1,0,0.3,0.1,0.3
								c0.1,0.1,0.2,0.1,0.3,0l2.2-1.3c0.1-0.1,0.2-0.1,0.3,0l2.2,1.3c0.1,0.1,0.2,0.1,0.3,0c0.1-0.1,0.1-0.2,0.1-0.3l-0.6-2.5
								c0-0.1,0-0.2,0.1-0.3L135.7,107.5z M135.7,107.5"/>
						</g>
					</g>
					<g id="XMLID_791_">
						<g id="XMLID_792_">
							<defs>
								<rect id="XMLID_796_" x="139.1" y="104.8" width="8" height="8"/>
							</defs>
							<clipPath id="XMLID_51_">
								<use xlink:href="#XMLID_796_"  style="overflow:visible;"/>
							</clipPath>
							<path id="XMLID_793_" class="st15" d="M147.6,107.5c0.1-0.1,0.1-0.2,0.1-0.3c0-0.1-0.1-0.2-0.3-0.2l-2.5-0.2
								c-0.1,0-0.2-0.1-0.3-0.2l-1-2.3c-0.1-0.1-0.2-0.2-0.3-0.2c-0.1,0-0.2,0.1-0.3,0.2l-1,2.3c0,0.1-0.1,0.2-0.3,0.2l-2.5,0.2
								c-0.1,0-0.2,0.1-0.3,0.2c0,0.1,0,0.3,0.1,0.3l1.9,1.6c0.1,0.1,0.1,0.2,0.1,0.3l-0.6,2.5c0,0.1,0,0.3,0.1,0.3
								c0.1,0.1,0.2,0.1,0.3,0l2.2-1.3c0.1-0.1,0.2-0.1,0.3,0l2.2,1.3c0.1,0.1,0.2,0.1,0.3,0c0.1-0.1,0.1-0.2,0.1-0.3l-0.6-2.5
								c0-0.1,0-0.2,0.1-0.3L147.6,107.5z M147.6,107.5"/>
						</g>
					</g>
					<g id="XMLID_797_">
						<g id="XMLID_798_">
							<defs>
								<rect id="XMLID_802_" x="150.1" y="104.8" width="9" height="8"/>
							</defs>
							<clipPath id="XMLID_52_">
								<use xlink:href="#XMLID_802_"  style="overflow:visible;"/>
							</clipPath>
							<path id="XMLID_799_" class="st16" d="M159.5,107.5c0.1-0.1,0.1-0.2,0.1-0.3c0-0.1-0.1-0.2-0.3-0.2l-2.5-0.2
								c-0.1,0-0.2-0.1-0.3-0.2l-1-2.3c-0.1-0.1-0.2-0.2-0.3-0.2c-0.1,0-0.2,0.1-0.3,0.2l-1,2.3c0,0.1-0.1,0.2-0.3,0.2l-2.5,0.2
								c-0.1,0-0.2,0.1-0.3,0.2c0,0.1,0,0.3,0.1,0.3l1.9,1.6c0.1,0.1,0.1,0.2,0.1,0.3l-0.6,2.5c0,0.1,0,0.3,0.1,0.3
								c0.1,0.1,0.2,0.1,0.3,0l2.2-1.3c0.1-0.1,0.2-0.1,0.3,0l2.2,1.3c0.1,0.1,0.2,0.1,0.3,0c0.1-0.1,0.1-0.2,0.1-0.3l-0.6-2.5
								c0-0.1,0-0.2,0.1-0.3L159.5,107.5z M159.5,107.5"/>
						</g>
					</g>
					<g id="XMLID_803_">
						<g id="XMLID_804_">
							<defs>
								<rect id="XMLID_808_" x="162.1" y="104.8" width="9" height="8"/>
							</defs>
							<clipPath id="XMLID_53_">
								<use xlink:href="#XMLID_808_"  style="overflow:visible;"/>
							</clipPath>
							<path id="XMLID_805_" class="st17" d="M171.4,107.5c0.1-0.1,0.1-0.2,0.1-0.3c0-0.1-0.1-0.2-0.3-0.2l-2.5-0.2
								c-0.1,0-0.2-0.1-0.3-0.2l-1-2.3c-0.1-0.1-0.2-0.2-0.3-0.2c-0.1,0-0.2,0.1-0.3,0.2l-1,2.3c0,0.1-0.1,0.2-0.3,0.2l-2.5,0.2
								c-0.1,0-0.2,0.1-0.3,0.2c0,0.1,0,0.3,0.1,0.3l1.9,1.6c0.1,0.1,0.1,0.2,0.1,0.3l-0.6,2.5c0,0.1,0,0.3,0.1,0.3
								c0.1,0.1,0.2,0.1,0.3,0l2.2-1.3c0.1-0.1,0.2-0.1,0.3,0l2.2,1.3c0.1,0.1,0.2,0.1,0.3,0c0.1-0.1,0.1-0.2,0.1-0.3l-0.6-2.5
								c0-0.1,0-0.2,0.1-0.3L171.4,107.5z M171.4,107.5"/>
						</g>
					</g>
				</g>
				<text id="XMLID_809_" transform="matrix(1 0 0 1 149.9309 146.0807)" class="st0 st7 st8">4</text>
			</g>
			<rect id="XMLID_877_" x="147.1" y="149.8" class="st13" width="4" height="55"/>
		</g>
	</g>
</g>
</svg>
