<?xml version="1.0" encoding="utf-8"?>
<!-- Generator: Adobe Illustrator 19.0.0, SVG Export Plug-In . SVG Version: 6.00 Build 0)  -->
<svg version="1.1" id="Layer_1" xmlns="http://www.w3.org/2000/svg" xmlns:xlink="http://www.w3.org/1999/xlink" x="0px" y="0px"
	 viewBox="0 0 300 300" style="enable-background:new 0 0 300 300;" xml:space="preserve">
<style type="text/css">
	.st0{fill:#D9042C;}
	.st1{fill:#F7F7F7;}
	.st2{fill:#6C0C22;}
</style>
<g id="XMLID_477_">
	<circle id="XMLID_478_" class="st0" cx="150" cy="150" r="150"/>
	<rect id="XMLID_479_" x="132" y="147.8" class="st1" width="33" height="34"/>
	<rect id="XMLID_480_" x="193" y="147.8" class="st1" width="33" height="34"/>
	<g id="XMLID_481_">
		<rect id="XMLID_482_" x="73" y="147.8" class="st1" width="34" height="34"/>
		<path id="XMLID_483_" class="st0" d="M97.3,156.5L87,166.8l-4.4-4.4c-1.3-1.3-3.1-1.3-4.4,0c-1.3,1.3-1.3,3.1,0,4.4l6.6,6.6
			c0.6,0.6,1.3,0.9,2.2,0.9c0.9,0,1.6-0.3,2.2-0.9l12.5-12.5c1.3-1.3,1.3-3.1,0-4.4S98.6,155.2,97.3,156.5z"/>
	</g>
	<rect id="XMLID_484_" x="59" y="64.8" class="st1" width="184" height="6"/>
	<rect id="XMLID_485_" x="76" y="88.8" class="st1" width="167" height="6"/>
	<rect id="XMLID_486_" x="125" y="111.8" class="st1" width="118" height="6"/>
	<rect id="XMLID_487_" x="103" y="113.8" class="st1" width="15" height="4"/>
	<g id="XMLID_613_">
		<g id="XMLID_544_">
			<g id="XMLID_131_">
				<path id="XMLID_132_" class="st1" d="M96.3,214.3c0,0.3,0,0.6-0.1,0.9c-0.1,0.3-0.2,0.5-0.3,0.7c-0.1,0.2-0.3,0.3-0.6,0.4
					c-0.2,0.1-0.5,0.2-0.8,0.2c-0.3,0-0.6,0-0.8-0.1c-0.2-0.1-0.4-0.2-0.5-0.4s-0.2-0.4-0.3-0.7c-0.1-0.3-0.1-0.6-0.1-0.9
					c0-0.3,0-0.6,0.1-0.8c0.1-0.3,0.2-0.5,0.3-0.7c0.1-0.2,0.3-0.3,0.5-0.4c0.2-0.1,0.5-0.2,0.8-0.2c0.3,0,0.6,0.1,0.8,0.2
					c0.2,0.1,0.4,0.3,0.5,0.5c0.1,0.2,0.2,0.4,0.3,0.7C96.3,213.8,96.3,214,96.3,214.3z M94.5,220.5
					C94.5,220.5,94.5,220.5,94.5,220.5c-0.1,0.1-0.1,0.1-0.2,0.1s-0.1,0-0.2,0c-0.1,0-0.1,0-0.2,0c-0.1,0-0.2,0-0.2,0
					s-0.1,0-0.1-0.1c0,0,0-0.1,0-0.1c0,0,0-0.1,0.1-0.1l5.6-8.1c0,0,0-0.1,0.1-0.1s0.1,0,0.1-0.1c0,0,0.1,0,0.2,0c0.1,0,0.1,0,0.2,0
					s0.2,0,0.2,0c0.1,0,0.1,0,0.1,0.1c0,0,0,0.1,0,0.1c0,0,0,0.1-0.1,0.1L94.5,220.5z M95.4,214.3c0-0.2,0-0.4,0-0.6
					s-0.1-0.3-0.2-0.5s-0.2-0.2-0.3-0.3c-0.1-0.1-0.2-0.1-0.4-0.1c-0.1,0-0.3,0-0.4,0.1c-0.1,0.1-0.2,0.1-0.3,0.3
					c-0.1,0.1-0.1,0.3-0.2,0.4c0,0.2,0,0.4,0,0.6c0,0.3,0,0.5,0.1,0.7c0,0.2,0.1,0.3,0.2,0.5c0.1,0.1,0.2,0.2,0.3,0.2
					c0.1,0,0.2,0.1,0.4,0.1c0.2,0,0.3,0,0.4-0.1s0.2-0.2,0.3-0.3c0.1-0.1,0.1-0.3,0.1-0.4C95.4,214.8,95.4,214.6,95.4,214.3z
					 M101.1,218.4c0,0.3,0,0.6-0.1,0.9c-0.1,0.3-0.2,0.5-0.3,0.7c-0.1,0.2-0.3,0.3-0.6,0.4c-0.2,0.1-0.5,0.2-0.8,0.2
					c-0.3,0-0.6,0-0.8-0.1c-0.2-0.1-0.4-0.2-0.5-0.4c-0.1-0.2-0.2-0.4-0.3-0.7c-0.1-0.3-0.1-0.6-0.1-0.9c0-0.3,0-0.6,0.1-0.8
					c0.1-0.3,0.2-0.5,0.3-0.7c0.1-0.2,0.3-0.3,0.5-0.4c0.2-0.1,0.5-0.2,0.8-0.2c0.3,0,0.6,0.1,0.8,0.2c0.2,0.1,0.4,0.3,0.5,0.5
					c0.1,0.2,0.2,0.4,0.3,0.7C101.1,217.8,101.1,218.1,101.1,218.4z M100.2,218.4c0-0.2,0-0.4,0-0.6c0-0.2-0.1-0.3-0.2-0.5
					c-0.1-0.1-0.2-0.2-0.3-0.3c-0.1-0.1-0.2-0.1-0.4-0.1c-0.1,0-0.3,0-0.4,0.1c-0.1,0.1-0.2,0.1-0.3,0.3c-0.1,0.1-0.1,0.3-0.2,0.4
					s0,0.4,0,0.6c0,0.3,0,0.5,0.1,0.7c0,0.2,0.1,0.3,0.2,0.5c0.1,0.1,0.2,0.2,0.3,0.2c0.1,0,0.2,0.1,0.4,0.1c0.2,0,0.3,0,0.4-0.1
					c0.1-0.1,0.2-0.2,0.3-0.3c0.1-0.1,0.1-0.3,0.1-0.4C100.2,218.8,100.2,218.6,100.2,218.4z"/>
				<path id="XMLID_138_" class="st1" d="M107.3,217.8c0,0.4-0.1,0.8-0.2,1.2c-0.1,0.3-0.4,0.6-0.6,0.9c-0.3,0.2-0.6,0.4-1,0.5
					s-0.8,0.2-1.2,0.2c-0.3,0-0.5,0-0.7-0.1c-0.2,0-0.4-0.1-0.6-0.1c-0.2-0.1-0.3-0.1-0.4-0.2c-0.1-0.1-0.2-0.1-0.2-0.1
					c0,0-0.1-0.1-0.1-0.1c0,0,0-0.1,0-0.1s0-0.1,0-0.1c0-0.1,0-0.1,0-0.2c0-0.1,0-0.1,0-0.2c0-0.1,0-0.1,0-0.1c0,0,0-0.1,0.1-0.1
					c0,0,0,0,0.1,0c0,0,0.1,0,0.2,0.1c0.1,0.1,0.2,0.1,0.4,0.2c0.1,0.1,0.3,0.1,0.5,0.2c0.2,0.1,0.5,0.1,0.8,0.1
					c0.3,0,0.5,0,0.8-0.1c0.2-0.1,0.4-0.2,0.6-0.3s0.3-0.3,0.4-0.5c0.1-0.2,0.1-0.5,0.1-0.8c0-0.3,0-0.5-0.1-0.7
					c-0.1-0.2-0.2-0.4-0.4-0.5s-0.4-0.2-0.6-0.3s-0.6-0.1-0.9-0.1c-0.3,0-0.5,0-0.7,0c-0.2,0-0.4,0-0.5,0c-0.1,0-0.2,0-0.3-0.1
					c0-0.1-0.1-0.2-0.1-0.3v-3.3c0-0.1,0-0.2,0.1-0.3c0.1-0.1,0.2-0.1,0.3-0.1h3.6c0,0,0.1,0,0.1,0c0,0,0.1,0,0.1,0.1
					c0,0,0,0.1,0,0.1c0,0.1,0,0.1,0,0.2c0,0.1,0,0.3-0.1,0.4c0,0.1-0.1,0.1-0.2,0.1h-2.9v2.3c0.1,0,0.3,0,0.4,0c0.1,0,0.3,0,0.5,0
					c0.4,0,0.8,0.1,1.2,0.2c0.3,0.1,0.6,0.3,0.8,0.5c0.2,0.2,0.4,0.4,0.5,0.7C107.2,217.1,107.3,217.5,107.3,217.8z"/>
				<path id="XMLID_140_" class="st1" d="M114.4,216.3c0,0.6,0,1.2-0.1,1.7c-0.1,0.5-0.3,1-0.5,1.3c-0.2,0.4-0.5,0.7-0.9,0.9
					c-0.4,0.2-0.8,0.3-1.4,0.3c-0.5,0-0.9-0.1-1.3-0.3c-0.3-0.2-0.6-0.4-0.8-0.8c-0.2-0.4-0.4-0.8-0.5-1.3s-0.1-1.1-0.1-1.8
					c0-0.6,0.1-1.2,0.2-1.7c0.1-0.5,0.3-1,0.5-1.3s0.5-0.7,0.9-0.9c0.4-0.2,0.8-0.3,1.4-0.3c0.5,0,0.9,0.1,1.3,0.3s0.6,0.4,0.8,0.8
					s0.4,0.8,0.5,1.3C114.4,215.1,114.4,215.7,114.4,216.3z M113.3,216.4c0-0.4,0-0.8,0-1.1c0-0.3-0.1-0.6-0.1-0.9s-0.1-0.5-0.2-0.6
					c-0.1-0.2-0.2-0.3-0.3-0.4s-0.3-0.2-0.4-0.3c-0.2-0.1-0.3-0.1-0.5-0.1c-0.4,0-0.6,0.1-0.9,0.3c-0.2,0.2-0.4,0.4-0.5,0.7
					c-0.1,0.3-0.2,0.6-0.3,1c0,0.4-0.1,0.8-0.1,1.3c0,0.6,0,1.1,0.1,1.5s0.2,0.8,0.3,1c0.1,0.3,0.3,0.5,0.5,0.6
					c0.2,0.1,0.5,0.2,0.8,0.2c0.2,0,0.4,0,0.6-0.1c0.2-0.1,0.3-0.2,0.5-0.3s0.2-0.3,0.3-0.5c0.1-0.2,0.1-0.4,0.2-0.7
					c0-0.2,0.1-0.5,0.1-0.8C113.3,217,113.3,216.7,113.3,216.4z"/>
			</g>
			<g id="XMLID_95_">
				<path id="XMLID_96_" class="st1" d="M96.3,214.3c0,0.3,0,0.6-0.1,0.9c-0.1,0.3-0.2,0.5-0.3,0.7c-0.1,0.2-0.3,0.3-0.6,0.4
					c-0.2,0.1-0.5,0.2-0.8,0.2c-0.3,0-0.6,0-0.8-0.1c-0.2-0.1-0.4-0.2-0.5-0.4s-0.2-0.4-0.3-0.7c-0.1-0.3-0.1-0.6-0.1-0.9
					c0-0.3,0-0.6,0.1-0.8c0.1-0.3,0.2-0.5,0.3-0.7c0.1-0.2,0.3-0.3,0.5-0.4c0.2-0.1,0.5-0.2,0.8-0.2c0.3,0,0.6,0.1,0.8,0.2
					c0.2,0.1,0.4,0.3,0.5,0.5c0.1,0.2,0.2,0.4,0.3,0.7C96.3,213.8,96.3,214,96.3,214.3z M94.5,220.5
					C94.5,220.5,94.5,220.5,94.5,220.5c-0.1,0.1-0.1,0.1-0.2,0.1s-0.1,0-0.2,0c-0.1,0-0.1,0-0.2,0c-0.1,0-0.2,0-0.2,0
					s-0.1,0-0.1-0.1c0,0,0-0.1,0-0.1c0,0,0-0.1,0.1-0.1l5.6-8.1c0,0,0-0.1,0.1-0.1s0.1,0,0.1-0.1c0,0,0.1,0,0.2,0c0.1,0,0.1,0,0.2,0
					s0.2,0,0.2,0c0.1,0,0.1,0,0.1,0.1c0,0,0,0.1,0,0.1c0,0,0,0.1-0.1,0.1L94.5,220.5z M95.4,214.3c0-0.2,0-0.4,0-0.6
					s-0.1-0.3-0.2-0.5s-0.2-0.2-0.3-0.3c-0.1-0.1-0.2-0.1-0.4-0.1c-0.1,0-0.3,0-0.4,0.1c-0.1,0.1-0.2,0.1-0.3,0.3
					c-0.1,0.1-0.1,0.3-0.2,0.4c0,0.2,0,0.4,0,0.6c0,0.3,0,0.5,0.1,0.7c0,0.2,0.1,0.3,0.2,0.5c0.1,0.1,0.2,0.2,0.3,0.2
					c0.1,0,0.2,0.1,0.4,0.1c0.2,0,0.3,0,0.4-0.1s0.2-0.2,0.3-0.3c0.1-0.1,0.1-0.3,0.1-0.4C95.4,214.8,95.4,214.6,95.4,214.3z
					 M101.1,218.4c0,0.3,0,0.6-0.1,0.9c-0.1,0.3-0.2,0.5-0.3,0.7c-0.1,0.2-0.3,0.3-0.6,0.4c-0.2,0.1-0.5,0.2-0.8,0.2
					c-0.3,0-0.6,0-0.8-0.1c-0.2-0.1-0.4-0.2-0.5-0.4c-0.1-0.2-0.2-0.4-0.3-0.7c-0.1-0.3-0.1-0.6-0.1-0.9c0-0.3,0-0.6,0.1-0.8
					c0.1-0.3,0.2-0.5,0.3-0.7c0.1-0.2,0.3-0.3,0.5-0.4c0.2-0.1,0.5-0.2,0.8-0.2c0.3,0,0.6,0.1,0.8,0.2c0.2,0.1,0.4,0.3,0.5,0.5
					c0.1,0.2,0.2,0.4,0.3,0.7C101.1,217.8,101.1,218.1,101.1,218.4z M100.2,218.4c0-0.2,0-0.4,0-0.6c0-0.2-0.1-0.3-0.2-0.5
					c-0.1-0.1-0.2-0.2-0.3-0.3c-0.1-0.1-0.2-0.1-0.4-0.1c-0.1,0-0.3,0-0.4,0.1c-0.1,0.1-0.2,0.1-0.3,0.3c-0.1,0.1-0.1,0.3-0.2,0.4
					s0,0.4,0,0.6c0,0.3,0,0.5,0.1,0.7c0,0.2,0.1,0.3,0.2,0.5c0.1,0.1,0.2,0.2,0.3,0.2c0.1,0,0.2,0.1,0.4,0.1c0.2,0,0.3,0,0.4-0.1
					c0.1-0.1,0.2-0.2,0.3-0.3c0.1-0.1,0.1-0.3,0.1-0.4C100.2,218.8,100.2,218.6,100.2,218.4z"/>
				<path id="XMLID_102_" class="st1" d="M107.3,217.8c0,0.4-0.1,0.8-0.2,1.2c-0.1,0.3-0.4,0.6-0.6,0.9c-0.3,0.2-0.6,0.4-1,0.5
					s-0.8,0.2-1.2,0.2c-0.3,0-0.5,0-0.7-0.1c-0.2,0-0.4-0.1-0.6-0.1c-0.2-0.1-0.3-0.1-0.4-0.2c-0.1-0.1-0.2-0.1-0.2-0.1
					c0,0-0.1-0.1-0.1-0.1c0,0,0-0.1,0-0.1s0-0.1,0-0.1c0-0.1,0-0.1,0-0.2c0-0.1,0-0.1,0-0.2c0-0.1,0-0.1,0-0.1c0,0,0-0.1,0.1-0.1
					c0,0,0,0,0.1,0c0,0,0.1,0,0.2,0.1c0.1,0.1,0.2,0.1,0.4,0.2c0.1,0.1,0.3,0.1,0.5,0.2c0.2,0.1,0.5,0.1,0.8,0.1
					c0.3,0,0.5,0,0.8-0.1c0.2-0.1,0.4-0.2,0.6-0.3s0.3-0.3,0.4-0.5c0.1-0.2,0.1-0.5,0.1-0.8c0-0.3,0-0.5-0.1-0.7
					c-0.1-0.2-0.2-0.4-0.4-0.5s-0.4-0.2-0.6-0.3s-0.6-0.1-0.9-0.1c-0.3,0-0.5,0-0.7,0c-0.2,0-0.4,0-0.5,0c-0.1,0-0.2,0-0.3-0.1
					c0-0.1-0.1-0.2-0.1-0.3v-3.3c0-0.1,0-0.2,0.1-0.3c0.1-0.1,0.2-0.1,0.3-0.1h3.6c0,0,0.1,0,0.1,0c0,0,0.1,0,0.1,0.1
					c0,0,0,0.1,0,0.1c0,0.1,0,0.1,0,0.2c0,0.1,0,0.3-0.1,0.4c0,0.1-0.1,0.1-0.2,0.1h-2.9v2.3c0.1,0,0.3,0,0.4,0c0.1,0,0.3,0,0.5,0
					c0.4,0,0.8,0.1,1.2,0.2c0.3,0.1,0.6,0.3,0.8,0.5c0.2,0.2,0.4,0.4,0.5,0.7C107.2,217.1,107.3,217.5,107.3,217.8z"/>
				<path id="XMLID_104_" class="st1" d="M114.4,216.3c0,0.6,0,1.2-0.1,1.7c-0.1,0.5-0.3,1-0.5,1.3c-0.2,0.4-0.5,0.7-0.9,0.9
					c-0.4,0.2-0.8,0.3-1.4,0.3c-0.5,0-0.9-0.1-1.3-0.3c-0.3-0.2-0.6-0.4-0.8-0.8c-0.2-0.4-0.4-0.8-0.5-1.3s-0.1-1.1-0.1-1.8
					c0-0.6,0.1-1.2,0.2-1.7c0.1-0.5,0.3-1,0.5-1.3s0.5-0.7,0.9-0.9c0.4-0.2,0.8-0.3,1.4-0.3c0.5,0,0.9,0.1,1.3,0.3s0.6,0.4,0.8,0.8
					s0.4,0.8,0.5,1.3C114.4,215.1,114.4,215.7,114.4,216.3z M113.3,216.4c0-0.4,0-0.8,0-1.1c0-0.3-0.1-0.6-0.1-0.9s-0.1-0.5-0.2-0.6
					c-0.1-0.2-0.2-0.3-0.3-0.4s-0.3-0.2-0.4-0.3c-0.2-0.1-0.3-0.1-0.5-0.1c-0.4,0-0.6,0.1-0.9,0.3c-0.2,0.2-0.4,0.4-0.5,0.7
					c-0.1,0.3-0.2,0.6-0.3,1c0,0.4-0.1,0.8-0.1,1.3c0,0.6,0,1.1,0.1,1.5s0.2,0.8,0.3,1c0.1,0.3,0.3,0.5,0.5,0.6
					c0.2,0.1,0.5,0.2,0.8,0.2c0.2,0,0.4,0,0.6-0.1c0.2-0.1,0.3-0.2,0.5-0.3s0.2-0.3,0.3-0.5c0.1-0.2,0.1-0.4,0.2-0.7
					c0-0.2,0.1-0.5,0.1-0.8C113.3,217,113.3,216.7,113.3,216.4z"/>
			</g>
			<g id="XMLID_488_">
				<path id="XMLID_62_" class="st1" d="M96.3,214.3c0,0.3,0,0.6-0.1,0.9c-0.1,0.3-0.2,0.5-0.3,0.7c-0.1,0.2-0.3,0.3-0.6,0.4
					c-0.2,0.1-0.5,0.2-0.8,0.2c-0.3,0-0.6,0-0.8-0.1c-0.2-0.1-0.4-0.2-0.5-0.4s-0.2-0.4-0.3-0.7c-0.1-0.3-0.1-0.6-0.1-0.9
					c0-0.3,0-0.6,0.1-0.8c0.1-0.3,0.2-0.5,0.3-0.7c0.1-0.2,0.3-0.3,0.5-0.4c0.2-0.1,0.5-0.2,0.8-0.2c0.3,0,0.6,0.1,0.8,0.2
					c0.2,0.1,0.4,0.3,0.5,0.5c0.1,0.2,0.2,0.4,0.3,0.7C96.3,213.8,96.3,214,96.3,214.3z M94.5,220.5
					C94.5,220.5,94.5,220.5,94.5,220.5c-0.1,0.1-0.1,0.1-0.2,0.1s-0.1,0-0.2,0c-0.1,0-0.1,0-0.2,0c-0.1,0-0.2,0-0.2,0
					s-0.1,0-0.1-0.1c0,0,0-0.1,0-0.1c0,0,0-0.1,0.1-0.1l5.6-8.1c0,0,0-0.1,0.1-0.1s0.1,0,0.1-0.1c0,0,0.1,0,0.2,0c0.1,0,0.1,0,0.2,0
					s0.2,0,0.2,0c0.1,0,0.1,0,0.1,0.1c0,0,0,0.1,0,0.1c0,0,0,0.1-0.1,0.1L94.5,220.5z M95.4,214.3c0-0.2,0-0.4,0-0.6
					s-0.1-0.3-0.2-0.5s-0.2-0.2-0.3-0.3c-0.1-0.1-0.2-0.1-0.4-0.1c-0.1,0-0.3,0-0.4,0.1c-0.1,0.1-0.2,0.1-0.3,0.3
					c-0.1,0.1-0.1,0.3-0.2,0.4c0,0.2,0,0.4,0,0.6c0,0.3,0,0.5,0.1,0.7c0,0.2,0.1,0.3,0.2,0.5c0.1,0.1,0.2,0.2,0.3,0.2
					c0.1,0,0.2,0.1,0.4,0.1c0.2,0,0.3,0,0.4-0.1s0.2-0.2,0.3-0.3c0.1-0.1,0.1-0.3,0.1-0.4C95.4,214.8,95.4,214.6,95.4,214.3z
					 M101.1,218.4c0,0.3,0,0.6-0.1,0.9c-0.1,0.3-0.2,0.5-0.3,0.7c-0.1,0.2-0.3,0.3-0.6,0.4c-0.2,0.1-0.5,0.2-0.8,0.2
					c-0.3,0-0.6,0-0.8-0.1c-0.2-0.1-0.4-0.2-0.5-0.4c-0.1-0.2-0.2-0.4-0.3-0.7c-0.1-0.3-0.1-0.6-0.1-0.9c0-0.3,0-0.6,0.1-0.8
					c0.1-0.3,0.2-0.5,0.3-0.7c0.1-0.2,0.3-0.3,0.5-0.4c0.2-0.1,0.5-0.2,0.8-0.2c0.3,0,0.6,0.1,0.8,0.2c0.2,0.1,0.4,0.3,0.5,0.5
					c0.1,0.2,0.2,0.4,0.3,0.7C101.1,217.8,101.1,218.1,101.1,218.4z M100.2,218.4c0-0.2,0-0.4,0-0.6c0-0.2-0.1-0.3-0.2-0.5
					c-0.1-0.1-0.2-0.2-0.3-0.3c-0.1-0.1-0.2-0.1-0.4-0.1c-0.1,0-0.3,0-0.4,0.1c-0.1,0.1-0.2,0.1-0.3,0.3c-0.1,0.1-0.1,0.3-0.2,0.4
					s0,0.4,0,0.6c0,0.3,0,0.5,0.1,0.7c0,0.2,0.1,0.3,0.2,0.5c0.1,0.1,0.2,0.2,0.3,0.2c0.1,0,0.2,0.1,0.4,0.1c0.2,0,0.3,0,0.4-0.1
					c0.1-0.1,0.2-0.2,0.3-0.3c0.1-0.1,0.1-0.3,0.1-0.4C100.2,218.8,100.2,218.6,100.2,218.4z"/>
				<path id="XMLID_68_" class="st1" d="M107.3,217.8c0,0.4-0.1,0.8-0.2,1.2c-0.1,0.3-0.4,0.6-0.6,0.9c-0.3,0.2-0.6,0.4-1,0.5
					s-0.8,0.2-1.2,0.2c-0.3,0-0.5,0-0.7-0.1c-0.2,0-0.4-0.1-0.6-0.1c-0.2-0.1-0.3-0.1-0.4-0.2c-0.1-0.1-0.2-0.1-0.2-0.1
					c0,0-0.1-0.1-0.1-0.1c0,0,0-0.1,0-0.1s0-0.1,0-0.1c0-0.1,0-0.1,0-0.2c0-0.1,0-0.1,0-0.2c0-0.1,0-0.1,0-0.1c0,0,0-0.1,0.1-0.1
					c0,0,0,0,0.1,0c0,0,0.1,0,0.2,0.1c0.1,0.1,0.2,0.1,0.4,0.2c0.1,0.1,0.3,0.1,0.5,0.2c0.2,0.1,0.5,0.1,0.8,0.1
					c0.3,0,0.5,0,0.8-0.1c0.2-0.1,0.4-0.2,0.6-0.3s0.3-0.3,0.4-0.5c0.1-0.2,0.1-0.5,0.1-0.8c0-0.3,0-0.5-0.1-0.7
					c-0.1-0.2-0.2-0.4-0.4-0.5s-0.4-0.2-0.6-0.3s-0.6-0.1-0.9-0.1c-0.3,0-0.5,0-0.7,0c-0.2,0-0.4,0-0.5,0c-0.1,0-0.2,0-0.3-0.1
					c0-0.1-0.1-0.2-0.1-0.3v-3.3c0-0.1,0-0.2,0.1-0.3c0.1-0.1,0.2-0.1,0.3-0.1h3.6c0,0,0.1,0,0.1,0c0,0,0.1,0,0.1,0.1
					c0,0,0,0.1,0,0.1c0,0.1,0,0.1,0,0.2c0,0.1,0,0.3-0.1,0.4c0,0.1-0.1,0.1-0.2,0.1h-2.9v2.3c0.1,0,0.3,0,0.4,0c0.1,0,0.3,0,0.5,0
					c0.4,0,0.8,0.1,1.2,0.2c0.3,0.1,0.6,0.3,0.8,0.5c0.2,0.2,0.4,0.4,0.5,0.7C107.2,217.1,107.3,217.5,107.3,217.8z"/>
				<path id="XMLID_70_" class="st1" d="M114.4,216.3c0,0.6,0,1.2-0.1,1.7c-0.1,0.5-0.3,1-0.5,1.3c-0.2,0.4-0.5,0.7-0.9,0.9
					c-0.4,0.2-0.8,0.3-1.4,0.3c-0.5,0-0.9-0.1-1.3-0.3c-0.3-0.2-0.6-0.4-0.8-0.8c-0.2-0.4-0.4-0.8-0.5-1.3s-0.1-1.1-0.1-1.8
					c0-0.6,0.1-1.2,0.2-1.7c0.1-0.5,0.3-1,0.5-1.3s0.5-0.7,0.9-0.9c0.4-0.2,0.8-0.3,1.4-0.3c0.5,0,0.9,0.1,1.3,0.3s0.6,0.4,0.8,0.8
					s0.4,0.8,0.5,1.3C114.4,215.1,114.4,215.7,114.4,216.3z M113.3,216.4c0-0.4,0-0.8,0-1.1c0-0.3-0.1-0.6-0.1-0.9s-0.1-0.5-0.2-0.6
					c-0.1-0.2-0.2-0.3-0.3-0.4s-0.3-0.2-0.4-0.3c-0.2-0.1-0.3-0.1-0.5-0.1c-0.4,0-0.6,0.1-0.9,0.3c-0.2,0.2-0.4,0.4-0.5,0.7
					c-0.1,0.3-0.2,0.6-0.3,1c0,0.4-0.1,0.8-0.1,1.3c0,0.6,0,1.1,0.1,1.5s0.2,0.8,0.3,1c0.1,0.3,0.3,0.5,0.5,0.6
					c0.2,0.1,0.5,0.2,0.8,0.2c0.2,0,0.4,0,0.6-0.1c0.2-0.1,0.3-0.2,0.5-0.3s0.2-0.3,0.3-0.5c0.1-0.2,0.1-0.4,0.2-0.7
					c0-0.2,0.1-0.5,0.1-0.8C113.3,217,113.3,216.7,113.3,216.4z"/>
			</g>
			<g id="XMLID_489_">
				<rect id="XMLID_490_" x="120" y="214.8" class="st2" width="85" height="5"/>
				<g id="XMLID_491_">
					<path id="XMLID_31_" class="st2" d="M205.5,226.3c-5.1,0-9.2-4.1-9.2-9.2s4.1-9.2,9.2-9.2s9.2,4.1,9.2,9.2
						S210.6,226.3,205.5,226.3z"/>
					<path id="XMLID_26_" class="st0" d="M205.5,208.9c4.5,0,8.2,3.7,8.2,8.2s-3.7,8.2-8.2,8.2s-8.2-3.7-8.2-8.2
						S200.9,208.9,205.5,208.9 M205.5,206.9c-5.6,0-10.2,4.6-10.2,10.2c0,5.6,4.6,10.2,10.2,10.2s10.2-4.6,10.2-10.2
						C215.7,211.5,211.1,206.9,205.5,206.9L205.5,206.9z"/>
				</g>
				<g id="XMLID_492_">
					<circle id="XMLID_34_" class="st0" cx="205.5" cy="217.1" r="3.8"/>
				</g>
			</g>
		</g>
		<g id="XMLID_612_">
			<g id="XMLID_143_">
				<path id="XMLID_144_" class="st1" d="M101.6,261.6c0,0.3,0,0.6-0.1,0.9c-0.1,0.3-0.2,0.5-0.3,0.7c-0.1,0.2-0.3,0.3-0.6,0.4
					c-0.2,0.1-0.5,0.2-0.8,0.2c-0.3,0-0.6,0-0.8-0.1s-0.4-0.2-0.5-0.4s-0.2-0.4-0.3-0.7c-0.1-0.3-0.1-0.6-0.1-0.9
					c0-0.3,0-0.6,0.1-0.8c0.1-0.3,0.2-0.5,0.3-0.7c0.1-0.2,0.3-0.3,0.5-0.4c0.2-0.1,0.5-0.2,0.8-0.2c0.3,0,0.6,0.1,0.8,0.2
					c0.2,0.1,0.4,0.3,0.5,0.5c0.1,0.2,0.2,0.4,0.3,0.7C101.6,261.1,101.6,261.3,101.6,261.6z M99.8,267.8
					C99.8,267.8,99.8,267.8,99.8,267.8c-0.1,0.1-0.1,0.1-0.2,0.1s-0.1,0-0.2,0c-0.1,0-0.1,0-0.2,0c-0.1,0-0.2,0-0.2,0
					s-0.1,0-0.1-0.1c0,0,0-0.1,0-0.1c0,0,0-0.1,0.1-0.1l5.6-8.1c0,0,0-0.1,0.1-0.1c0,0,0.1,0,0.1-0.1c0,0,0.1,0,0.2,0
					c0.1,0,0.1,0,0.2,0s0.2,0,0.2,0c0.1,0,0.1,0,0.1,0.1c0,0,0,0.1,0,0.1c0,0,0,0.1-0.1,0.1L99.8,267.8z M100.7,261.7
					c0-0.2,0-0.4,0-0.6c0-0.2-0.1-0.3-0.2-0.5s-0.2-0.2-0.3-0.3c-0.1-0.1-0.2-0.1-0.4-0.1c-0.1,0-0.3,0-0.4,0.1s-0.2,0.1-0.3,0.3
					c-0.1,0.1-0.1,0.3-0.2,0.4c0,0.2,0,0.4,0,0.6c0,0.3,0,0.5,0.1,0.7c0,0.2,0.1,0.3,0.2,0.5c0.1,0.1,0.2,0.2,0.3,0.2
					c0.1,0,0.2,0.1,0.4,0.1c0.2,0,0.3,0,0.4-0.1s0.2-0.2,0.3-0.3c0.1-0.1,0.1-0.3,0.1-0.4C100.7,262.1,100.7,261.9,100.7,261.7z
					 M106.4,265.7c0,0.3,0,0.6-0.1,0.9c-0.1,0.3-0.2,0.5-0.3,0.7c-0.1,0.2-0.3,0.3-0.6,0.4c-0.2,0.1-0.5,0.2-0.8,0.2
					c-0.3,0-0.6,0-0.8-0.1s-0.4-0.2-0.5-0.4c-0.1-0.2-0.2-0.4-0.3-0.7c-0.1-0.3-0.1-0.6-0.1-0.9c0-0.3,0-0.6,0.1-0.8
					c0.1-0.3,0.2-0.5,0.3-0.7c0.1-0.2,0.3-0.3,0.5-0.4c0.2-0.1,0.5-0.2,0.8-0.2c0.3,0,0.6,0.1,0.8,0.2c0.2,0.1,0.4,0.3,0.5,0.5
					c0.1,0.2,0.2,0.4,0.3,0.7C106.3,265.1,106.4,265.4,106.4,265.7z M105.5,265.7c0-0.2,0-0.4,0-0.6s-0.1-0.3-0.2-0.5
					c-0.1-0.1-0.2-0.2-0.3-0.3c-0.1-0.1-0.2-0.1-0.4-0.1c-0.1,0-0.3,0-0.4,0.1s-0.2,0.1-0.3,0.3c-0.1,0.1-0.1,0.3-0.2,0.4
					c0,0.2,0,0.4,0,0.6c0,0.3,0,0.5,0.1,0.7c0,0.2,0.1,0.3,0.2,0.5c0.1,0.1,0.2,0.2,0.3,0.2c0.1,0,0.2,0.1,0.4,0.1
					c0.2,0,0.3,0,0.4-0.1s0.2-0.2,0.3-0.3c0.1-0.1,0.1-0.3,0.1-0.4C105.5,266.1,105.5,265.9,105.5,265.7z"/>
				<path id="XMLID_150_" class="st1" d="M112.8,265.1c0,0.4-0.1,0.7-0.2,1c-0.1,0.3-0.3,0.6-0.5,0.9c-0.2,0.3-0.5,0.5-0.9,0.6
					c-0.3,0.2-0.8,0.2-1.2,0.2c-0.3,0-0.6,0-0.9-0.1c-0.3-0.1-0.5-0.2-0.7-0.4c-0.2-0.2-0.4-0.3-0.5-0.6c-0.1-0.2-0.2-0.5-0.3-0.8
					s-0.1-0.6-0.2-0.9c0-0.3,0-0.7,0-1.1c0-0.3,0-0.7,0.1-1.1c0-0.4,0.1-0.7,0.2-1c0.1-0.3,0.2-0.6,0.4-0.9c0.2-0.3,0.4-0.5,0.6-0.8
					s0.5-0.4,0.9-0.5c0.3-0.1,0.7-0.2,1.2-0.2c0.2,0,0.3,0,0.5,0c0.2,0,0.3,0,0.4,0.1s0.2,0.1,0.3,0.1s0.2,0.1,0.2,0.1
					c0,0,0.1,0,0.1,0.1s0,0.1,0,0.1c0,0,0,0.1,0,0.1c0,0,0,0.1,0,0.1c0,0.1,0,0.1,0,0.2c0,0.1,0,0.1,0,0.1s0,0.1-0.1,0.1
					c0,0-0.1,0-0.1,0c0,0-0.1,0-0.2,0s-0.2-0.1-0.3-0.1c-0.1,0-0.2-0.1-0.4-0.1c-0.2,0-0.3,0-0.6,0c-0.4,0-0.7,0.1-1,0.2
					s-0.5,0.4-0.7,0.6c-0.2,0.3-0.3,0.6-0.4,0.9c-0.1,0.4-0.1,0.7-0.1,1.1c0.1-0.1,0.2-0.1,0.4-0.2s0.3-0.1,0.4-0.2
					c0.2,0,0.3-0.1,0.5-0.1c0.2,0,0.4,0,0.6,0c0.4,0,0.8,0.1,1.1,0.2c0.3,0.1,0.5,0.3,0.7,0.5s0.3,0.5,0.4,0.7
					S112.8,264.8,112.8,265.1z M111.7,265.2c0-0.2,0-0.5-0.1-0.7s-0.1-0.4-0.2-0.5c-0.1-0.1-0.3-0.2-0.5-0.3
					c-0.2-0.1-0.4-0.1-0.7-0.1c-0.2,0-0.3,0-0.5,0c-0.2,0-0.3,0.1-0.4,0.1c-0.1,0-0.3,0.1-0.4,0.2c-0.1,0.1-0.3,0.1-0.4,0.2
					c0,0.5,0,1,0.1,1.4c0.1,0.4,0.2,0.7,0.3,0.9c0.1,0.2,0.3,0.4,0.5,0.5s0.4,0.1,0.7,0.1c0.3,0,0.5,0,0.7-0.2
					c0.2-0.1,0.4-0.2,0.5-0.4c0.1-0.2,0.2-0.4,0.3-0.6S111.7,265.4,111.7,265.2z"/>
				<path id="XMLID_153_" class="st1" d="M119.7,263.7c0,0.6,0,1.2-0.1,1.7c-0.1,0.5-0.3,1-0.5,1.3c-0.2,0.4-0.5,0.7-0.9,0.9
					c-0.4,0.2-0.8,0.3-1.4,0.3c-0.5,0-0.9-0.1-1.3-0.3c-0.3-0.2-0.6-0.4-0.8-0.8c-0.2-0.4-0.4-0.8-0.5-1.3c-0.1-0.5-0.1-1.1-0.1-1.8
					c0-0.6,0.1-1.2,0.2-1.7c0.1-0.5,0.3-1,0.5-1.3s0.5-0.7,0.9-0.9c0.4-0.2,0.8-0.3,1.4-0.3c0.5,0,0.9,0.1,1.3,0.3
					c0.3,0.2,0.6,0.4,0.8,0.8s0.4,0.8,0.5,1.3C119.6,262.4,119.7,263,119.7,263.7z M118.6,263.7c0-0.4,0-0.8,0-1.1
					c0-0.3-0.1-0.6-0.1-0.9c-0.1-0.2-0.1-0.5-0.2-0.6c-0.1-0.2-0.2-0.3-0.3-0.4s-0.3-0.2-0.4-0.3c-0.2-0.1-0.3-0.1-0.5-0.1
					c-0.4,0-0.6,0.1-0.9,0.3c-0.2,0.2-0.4,0.4-0.5,0.7c-0.1,0.3-0.2,0.6-0.3,1c0,0.4-0.1,0.8-0.1,1.3c0,0.6,0,1.1,0.1,1.5
					c0.1,0.4,0.2,0.8,0.3,1c0.1,0.3,0.3,0.5,0.5,0.6c0.2,0.1,0.5,0.2,0.8,0.2c0.2,0,0.4,0,0.6-0.1c0.2-0.1,0.3-0.2,0.5-0.3
					s0.2-0.3,0.3-0.5c0.1-0.2,0.1-0.4,0.2-0.7c0-0.2,0.1-0.5,0.1-0.8C118.6,264.3,118.6,264,118.6,263.7z"/>
			</g>
			<g id="XMLID_107_">
				<path id="XMLID_108_" class="st1" d="M101.6,261.6c0,0.3,0,0.6-0.1,0.9c-0.1,0.3-0.2,0.5-0.3,0.7c-0.1,0.2-0.3,0.3-0.6,0.4
					c-0.2,0.1-0.5,0.2-0.8,0.2c-0.3,0-0.6,0-0.8-0.1s-0.4-0.2-0.5-0.4s-0.2-0.4-0.3-0.7c-0.1-0.3-0.1-0.6-0.1-0.9
					c0-0.3,0-0.6,0.1-0.8c0.1-0.3,0.2-0.5,0.3-0.7c0.1-0.2,0.3-0.3,0.5-0.4c0.2-0.1,0.5-0.2,0.8-0.2c0.3,0,0.6,0.1,0.8,0.2
					c0.2,0.1,0.4,0.3,0.5,0.5c0.1,0.2,0.2,0.4,0.3,0.7C101.6,261.1,101.6,261.3,101.6,261.6z M99.8,267.8
					C99.8,267.8,99.8,267.8,99.8,267.8c-0.1,0.1-0.1,0.1-0.2,0.1s-0.1,0-0.2,0c-0.1,0-0.1,0-0.2,0c-0.1,0-0.2,0-0.2,0
					s-0.1,0-0.1-0.1c0,0,0-0.1,0-0.1c0,0,0-0.1,0.1-0.1l5.6-8.1c0,0,0-0.1,0.1-0.1c0,0,0.1,0,0.1-0.1c0,0,0.1,0,0.2,0
					c0.1,0,0.1,0,0.2,0s0.2,0,0.2,0c0.1,0,0.1,0,0.1,0.1c0,0,0,0.1,0,0.1c0,0,0,0.1-0.1,0.1L99.8,267.8z M100.7,261.7
					c0-0.2,0-0.4,0-0.6c0-0.2-0.1-0.3-0.2-0.5s-0.2-0.2-0.3-0.3c-0.1-0.1-0.2-0.1-0.4-0.1c-0.1,0-0.3,0-0.4,0.1s-0.2,0.1-0.3,0.3
					c-0.1,0.1-0.1,0.3-0.2,0.4c0,0.2,0,0.4,0,0.6c0,0.3,0,0.5,0.1,0.7c0,0.2,0.1,0.3,0.2,0.5c0.1,0.1,0.2,0.2,0.3,0.2
					c0.1,0,0.2,0.1,0.4,0.1c0.2,0,0.3,0,0.4-0.1s0.2-0.2,0.3-0.3c0.1-0.1,0.1-0.3,0.1-0.4C100.7,262.1,100.7,261.9,100.7,261.7z
					 M106.4,265.7c0,0.3,0,0.6-0.1,0.9c-0.1,0.3-0.2,0.5-0.3,0.7c-0.1,0.2-0.3,0.3-0.6,0.4c-0.2,0.1-0.5,0.2-0.8,0.2
					c-0.3,0-0.6,0-0.8-0.1s-0.4-0.2-0.5-0.4c-0.1-0.2-0.2-0.4-0.3-0.7c-0.1-0.3-0.1-0.6-0.1-0.9c0-0.3,0-0.6,0.1-0.8
					c0.1-0.3,0.2-0.5,0.3-0.7c0.1-0.2,0.3-0.3,0.5-0.4c0.2-0.1,0.5-0.2,0.8-0.2c0.3,0,0.6,0.1,0.8,0.2c0.2,0.1,0.4,0.3,0.5,0.5
					c0.1,0.2,0.2,0.4,0.3,0.7C106.3,265.1,106.4,265.4,106.4,265.7z M105.5,265.7c0-0.2,0-0.4,0-0.6s-0.1-0.3-0.2-0.5
					c-0.1-0.1-0.2-0.2-0.3-0.3c-0.1-0.1-0.2-0.1-0.4-0.1c-0.1,0-0.3,0-0.4,0.1s-0.2,0.1-0.3,0.3c-0.1,0.1-0.1,0.3-0.2,0.4
					c0,0.2,0,0.4,0,0.6c0,0.3,0,0.5,0.1,0.7c0,0.2,0.1,0.3,0.2,0.5c0.1,0.1,0.2,0.2,0.3,0.2c0.1,0,0.2,0.1,0.4,0.1
					c0.2,0,0.3,0,0.4-0.1s0.2-0.2,0.3-0.3c0.1-0.1,0.1-0.3,0.1-0.4C105.5,266.1,105.5,265.9,105.5,265.7z"/>
				<path id="XMLID_114_" class="st1" d="M112.8,265.1c0,0.4-0.1,0.7-0.2,1c-0.1,0.3-0.3,0.6-0.5,0.9c-0.2,0.3-0.5,0.5-0.9,0.6
					c-0.3,0.2-0.8,0.2-1.2,0.2c-0.3,0-0.6,0-0.9-0.1c-0.3-0.1-0.5-0.2-0.7-0.4c-0.2-0.2-0.4-0.3-0.5-0.6c-0.1-0.2-0.2-0.5-0.3-0.8
					s-0.1-0.6-0.2-0.9c0-0.3,0-0.7,0-1.1c0-0.3,0-0.7,0.1-1.1c0-0.4,0.1-0.7,0.2-1c0.1-0.3,0.2-0.6,0.4-0.9c0.2-0.3,0.4-0.5,0.6-0.8
					s0.5-0.4,0.9-0.5c0.3-0.1,0.7-0.2,1.2-0.2c0.2,0,0.3,0,0.5,0c0.2,0,0.3,0,0.4,0.1s0.2,0.1,0.3,0.1s0.2,0.1,0.2,0.1
					c0,0,0.1,0,0.1,0.1s0,0.1,0,0.1c0,0,0,0.1,0,0.1c0,0,0,0.1,0,0.1c0,0.1,0,0.1,0,0.2c0,0.1,0,0.1,0,0.1s0,0.1-0.1,0.1
					c0,0-0.1,0-0.1,0c0,0-0.1,0-0.2,0s-0.2-0.1-0.3-0.1c-0.1,0-0.2-0.1-0.4-0.1c-0.2,0-0.3,0-0.6,0c-0.4,0-0.7,0.1-1,0.2
					s-0.5,0.4-0.7,0.6c-0.2,0.3-0.3,0.6-0.4,0.9c-0.1,0.4-0.1,0.7-0.1,1.1c0.1-0.1,0.2-0.1,0.4-0.2s0.3-0.1,0.4-0.2
					c0.2,0,0.3-0.1,0.5-0.1c0.2,0,0.4,0,0.6,0c0.4,0,0.8,0.1,1.1,0.2c0.3,0.1,0.5,0.3,0.7,0.5s0.3,0.5,0.4,0.7
					S112.8,264.8,112.8,265.1z M111.7,265.2c0-0.2,0-0.5-0.1-0.7s-0.1-0.4-0.2-0.5c-0.1-0.1-0.3-0.2-0.5-0.3
					c-0.2-0.1-0.4-0.1-0.7-0.1c-0.2,0-0.3,0-0.5,0c-0.2,0-0.3,0.1-0.4,0.1c-0.1,0-0.3,0.1-0.4,0.2c-0.1,0.1-0.3,0.1-0.4,0.2
					c0,0.5,0,1,0.1,1.4c0.1,0.4,0.2,0.7,0.3,0.9c0.1,0.2,0.3,0.4,0.5,0.5s0.4,0.1,0.7,0.1c0.3,0,0.5,0,0.7-0.2
					c0.2-0.1,0.4-0.2,0.5-0.4c0.1-0.2,0.2-0.4,0.3-0.6S111.7,265.4,111.7,265.2z"/>
				<path id="XMLID_117_" class="st1" d="M119.7,263.7c0,0.6,0,1.2-0.1,1.7c-0.1,0.5-0.3,1-0.5,1.3c-0.2,0.4-0.5,0.7-0.9,0.9
					c-0.4,0.2-0.8,0.3-1.4,0.3c-0.5,0-0.9-0.1-1.3-0.3c-0.3-0.2-0.6-0.4-0.8-0.8c-0.2-0.4-0.4-0.8-0.5-1.3c-0.1-0.5-0.1-1.1-0.1-1.8
					c0-0.6,0.1-1.2,0.2-1.7c0.1-0.5,0.3-1,0.5-1.3s0.5-0.7,0.9-0.9c0.4-0.2,0.8-0.3,1.4-0.3c0.5,0,0.9,0.1,1.3,0.3
					c0.3,0.2,0.6,0.4,0.8,0.8s0.4,0.8,0.5,1.3C119.6,262.4,119.7,263,119.7,263.7z M118.6,263.7c0-0.4,0-0.8,0-1.1
					c0-0.3-0.1-0.6-0.1-0.9c-0.1-0.2-0.1-0.5-0.2-0.6c-0.1-0.2-0.2-0.3-0.3-0.4s-0.3-0.2-0.4-0.3c-0.2-0.1-0.3-0.1-0.5-0.1
					c-0.4,0-0.6,0.1-0.9,0.3c-0.2,0.2-0.4,0.4-0.5,0.7c-0.1,0.3-0.2,0.6-0.3,1c0,0.4-0.1,0.8-0.1,1.3c0,0.6,0,1.1,0.1,1.5
					c0.1,0.4,0.2,0.8,0.3,1c0.1,0.3,0.3,0.5,0.5,0.6c0.2,0.1,0.5,0.2,0.8,0.2c0.2,0,0.4,0,0.6-0.1c0.2-0.1,0.3-0.2,0.5-0.3
					s0.2-0.3,0.3-0.5c0.1-0.2,0.1-0.4,0.2-0.7c0-0.2,0.1-0.5,0.1-0.8C118.6,264.3,118.6,264,118.6,263.7z"/>
			</g>
			<g id="XMLID_494_">
				<path id="XMLID_73_" class="st1" d="M101.6,261.6c0,0.3,0,0.6-0.1,0.9c-0.1,0.3-0.2,0.5-0.3,0.7c-0.1,0.2-0.3,0.3-0.6,0.4
					c-0.2,0.1-0.5,0.2-0.8,0.2c-0.3,0-0.6,0-0.8-0.1s-0.4-0.2-0.5-0.4s-0.2-0.4-0.3-0.7c-0.1-0.3-0.1-0.6-0.1-0.9
					c0-0.3,0-0.6,0.1-0.8c0.1-0.3,0.2-0.5,0.3-0.7c0.1-0.2,0.3-0.3,0.5-0.4c0.2-0.1,0.5-0.2,0.8-0.2c0.3,0,0.6,0.1,0.8,0.2
					c0.2,0.1,0.4,0.3,0.5,0.5c0.1,0.2,0.2,0.4,0.3,0.7C101.6,261.1,101.6,261.3,101.6,261.6z M99.8,267.8
					C99.8,267.8,99.8,267.8,99.8,267.8c-0.1,0.1-0.1,0.1-0.2,0.1s-0.1,0-0.2,0c-0.1,0-0.1,0-0.2,0c-0.1,0-0.2,0-0.2,0
					s-0.1,0-0.1-0.1c0,0,0-0.1,0-0.1c0,0,0-0.1,0.1-0.1l5.6-8.1c0,0,0-0.1,0.1-0.1c0,0,0.1,0,0.1-0.1c0,0,0.1,0,0.2,0
					c0.1,0,0.1,0,0.2,0s0.2,0,0.2,0c0.1,0,0.1,0,0.1,0.1c0,0,0,0.1,0,0.1c0,0,0,0.1-0.1,0.1L99.8,267.8z M100.7,261.7
					c0-0.2,0-0.4,0-0.6c0-0.2-0.1-0.3-0.2-0.5s-0.2-0.2-0.3-0.3c-0.1-0.1-0.2-0.1-0.4-0.1c-0.1,0-0.3,0-0.4,0.1s-0.2,0.1-0.3,0.3
					c-0.1,0.1-0.1,0.3-0.2,0.4c0,0.2,0,0.4,0,0.6c0,0.3,0,0.5,0.1,0.7c0,0.2,0.1,0.3,0.2,0.5c0.1,0.1,0.2,0.2,0.3,0.2
					c0.1,0,0.2,0.1,0.4,0.1c0.2,0,0.3,0,0.4-0.1s0.2-0.2,0.3-0.3c0.1-0.1,0.1-0.3,0.1-0.4C100.7,262.1,100.7,261.9,100.7,261.7z
					 M106.4,265.7c0,0.3,0,0.6-0.1,0.9c-0.1,0.3-0.2,0.5-0.3,0.7c-0.1,0.2-0.3,0.3-0.6,0.4c-0.2,0.1-0.5,0.2-0.8,0.2
					c-0.3,0-0.6,0-0.8-0.1s-0.4-0.2-0.5-0.4c-0.1-0.2-0.2-0.4-0.3-0.7c-0.1-0.3-0.1-0.6-0.1-0.9c0-0.3,0-0.6,0.1-0.8
					c0.1-0.3,0.2-0.5,0.3-0.7c0.1-0.2,0.3-0.3,0.5-0.4c0.2-0.1,0.5-0.2,0.8-0.2c0.3,0,0.6,0.1,0.8,0.2c0.2,0.1,0.4,0.3,0.5,0.5
					c0.1,0.2,0.2,0.4,0.3,0.7C106.3,265.1,106.4,265.4,106.4,265.7z M105.5,265.7c0-0.2,0-0.4,0-0.6s-0.1-0.3-0.2-0.5
					c-0.1-0.1-0.2-0.2-0.3-0.3c-0.1-0.1-0.2-0.1-0.4-0.1c-0.1,0-0.3,0-0.4,0.1s-0.2,0.1-0.3,0.3c-0.1,0.1-0.1,0.3-0.2,0.4
					c0,0.2,0,0.4,0,0.6c0,0.3,0,0.5,0.1,0.7c0,0.2,0.1,0.3,0.2,0.5c0.1,0.1,0.2,0.2,0.3,0.2c0.1,0,0.2,0.1,0.4,0.1
					c0.2,0,0.3,0,0.4-0.1s0.2-0.2,0.3-0.3c0.1-0.1,0.1-0.3,0.1-0.4C105.5,266.1,105.5,265.9,105.5,265.7z"/>
				<path id="XMLID_79_" class="st1" d="M112.8,265.1c0,0.4-0.1,0.7-0.2,1c-0.1,0.3-0.3,0.6-0.5,0.9c-0.2,0.3-0.5,0.5-0.9,0.6
					c-0.3,0.2-0.8,0.2-1.2,0.2c-0.3,0-0.6,0-0.9-0.1c-0.3-0.1-0.5-0.2-0.7-0.4c-0.2-0.2-0.4-0.3-0.5-0.6c-0.1-0.2-0.2-0.5-0.3-0.8
					s-0.1-0.6-0.2-0.9c0-0.3,0-0.7,0-1.1c0-0.3,0-0.7,0.1-1.1c0-0.4,0.1-0.7,0.2-1c0.1-0.3,0.2-0.6,0.4-0.9c0.2-0.3,0.4-0.5,0.6-0.8
					s0.5-0.4,0.9-0.5c0.3-0.1,0.7-0.2,1.2-0.2c0.2,0,0.3,0,0.5,0c0.2,0,0.3,0,0.4,0.1s0.2,0.1,0.3,0.1s0.2,0.1,0.2,0.1
					c0,0,0.1,0,0.1,0.1s0,0.1,0,0.1c0,0,0,0.1,0,0.1c0,0,0,0.1,0,0.1c0,0.1,0,0.1,0,0.2c0,0.1,0,0.1,0,0.1s0,0.1-0.1,0.1
					c0,0-0.1,0-0.1,0c0,0-0.1,0-0.2,0s-0.2-0.1-0.3-0.1c-0.1,0-0.2-0.1-0.4-0.1c-0.2,0-0.3,0-0.6,0c-0.4,0-0.7,0.1-1,0.2
					s-0.5,0.4-0.7,0.6c-0.2,0.3-0.3,0.6-0.4,0.9c-0.1,0.4-0.1,0.7-0.1,1.1c0.1-0.1,0.2-0.1,0.4-0.2s0.3-0.1,0.4-0.2
					c0.2,0,0.3-0.1,0.5-0.1c0.2,0,0.4,0,0.6,0c0.4,0,0.8,0.1,1.1,0.2c0.3,0.1,0.5,0.3,0.7,0.5s0.3,0.5,0.4,0.7
					S112.8,264.8,112.8,265.1z M111.7,265.2c0-0.2,0-0.5-0.1-0.7s-0.1-0.4-0.2-0.5c-0.1-0.1-0.3-0.2-0.5-0.3
					c-0.2-0.1-0.4-0.1-0.7-0.1c-0.2,0-0.3,0-0.5,0c-0.2,0-0.3,0.1-0.4,0.1c-0.1,0-0.3,0.1-0.4,0.2c-0.1,0.1-0.3,0.1-0.4,0.2
					c0,0.5,0,1,0.1,1.4c0.1,0.4,0.2,0.7,0.3,0.9c0.1,0.2,0.3,0.4,0.5,0.5s0.4,0.1,0.7,0.1c0.3,0,0.5,0,0.7-0.2
					c0.2-0.1,0.4-0.2,0.5-0.4c0.1-0.2,0.2-0.4,0.3-0.6S111.7,265.4,111.7,265.2z"/>
				<path id="XMLID_82_" class="st1" d="M119.7,263.7c0,0.6,0,1.2-0.1,1.7c-0.1,0.5-0.3,1-0.5,1.3c-0.2,0.4-0.5,0.7-0.9,0.9
					c-0.4,0.2-0.8,0.3-1.4,0.3c-0.5,0-0.9-0.1-1.3-0.3c-0.3-0.2-0.6-0.4-0.8-0.8c-0.2-0.4-0.4-0.8-0.5-1.3c-0.1-0.5-0.1-1.1-0.1-1.8
					c0-0.6,0.1-1.2,0.2-1.7c0.1-0.5,0.3-1,0.5-1.3s0.5-0.7,0.9-0.9c0.4-0.2,0.8-0.3,1.4-0.3c0.5,0,0.9,0.1,1.3,0.3
					c0.3,0.2,0.6,0.4,0.8,0.8s0.4,0.8,0.5,1.3C119.6,262.4,119.7,263,119.7,263.7z M118.6,263.7c0-0.4,0-0.8,0-1.1
					c0-0.3-0.1-0.6-0.1-0.9c-0.1-0.2-0.1-0.5-0.2-0.6c-0.1-0.2-0.2-0.3-0.3-0.4s-0.3-0.2-0.4-0.3c-0.2-0.1-0.3-0.1-0.5-0.1
					c-0.4,0-0.6,0.1-0.9,0.3c-0.2,0.2-0.4,0.4-0.5,0.7c-0.1,0.3-0.2,0.6-0.3,1c0,0.4-0.1,0.8-0.1,1.3c0,0.6,0,1.1,0.1,1.5
					c0.1,0.4,0.2,0.8,0.3,1c0.1,0.3,0.3,0.5,0.5,0.6c0.2,0.1,0.5,0.2,0.8,0.2c0.2,0,0.4,0,0.6-0.1c0.2-0.1,0.3-0.2,0.5-0.3
					s0.2-0.3,0.3-0.5c0.1-0.2,0.1-0.4,0.2-0.7c0-0.2,0.1-0.5,0.1-0.8C118.6,264.3,118.6,264,118.6,263.7z"/>
			</g>
			<g id="XMLID_495_">
				<rect id="XMLID_496_" x="124" y="261.8" class="st2" width="80" height="5"/>
				<g id="XMLID_497_">
					<path id="XMLID_24_" class="st2" d="M204,273.7c-5.1,0-9.2-4.1-9.2-9.2c0-5.1,4.1-9.2,9.2-9.2c5.1,0,9.2,4.1,9.2,9.2
						C213.2,269.5,209.1,273.7,204,273.7z"/>
					<path id="XMLID_19_" class="st0" d="M204,256.2c4.5,0,8.2,3.7,8.2,8.2c0,4.5-3.7,8.2-8.2,8.2s-8.2-3.7-8.2-8.2
						C195.7,259.9,199.4,256.2,204,256.2 M204,254.2c-5.6,0-10.2,4.6-10.2,10.2c0,5.6,4.6,10.2,10.2,10.2s10.2-4.6,10.2-10.2
						C214.2,258.8,209.6,254.2,204,254.2L204,254.2z"/>
				</g>
				<g id="XMLID_498_">
					<circle id="XMLID_27_" class="st0" cx="204" cy="264.4" r="4"/>
				</g>
			</g>
		</g>
		<g id="XMLID_545_">
			<g id="XMLID_156_">
				<path id="XMLID_157_" class="st1" d="M51.7,236.8c0,0.3,0,0.6-0.1,0.9c-0.1,0.3-0.2,0.5-0.3,0.7c-0.1,0.2-0.3,0.3-0.6,0.4
					c-0.2,0.1-0.5,0.2-0.8,0.2c-0.3,0-0.6,0-0.8-0.1s-0.4-0.2-0.5-0.4s-0.2-0.4-0.3-0.7c-0.1-0.3-0.1-0.6-0.1-0.9
					c0-0.3,0-0.6,0.1-0.8c0.1-0.3,0.2-0.5,0.3-0.7c0.1-0.2,0.3-0.3,0.5-0.4c0.2-0.1,0.5-0.2,0.8-0.2c0.3,0,0.6,0.1,0.8,0.2
					c0.2,0.1,0.4,0.3,0.5,0.5c0.1,0.2,0.2,0.4,0.3,0.7C51.7,236.3,51.7,236.5,51.7,236.8z M49.9,243C49.9,243,49.9,243,49.9,243
					c-0.1,0.1-0.1,0.1-0.2,0.1s-0.1,0-0.2,0c-0.1,0-0.1,0-0.2,0c-0.1,0-0.2,0-0.2,0s-0.1,0-0.1-0.1c0,0,0-0.1,0-0.1
					c0,0,0-0.1,0.1-0.1l5.6-8.1c0,0,0-0.1,0.1-0.1c0,0,0.1,0,0.1-0.1c0,0,0.1,0,0.2,0c0.1,0,0.1,0,0.2,0s0.2,0,0.2,0
					c0.1,0,0.1,0,0.1,0.1c0,0,0,0.1,0,0.1c0,0,0,0.1-0.1,0.1L49.9,243z M50.8,236.9c0-0.2,0-0.4,0-0.6c0-0.2-0.1-0.3-0.2-0.5
					s-0.2-0.2-0.3-0.3c-0.1-0.1-0.2-0.1-0.4-0.1c-0.1,0-0.3,0-0.4,0.1s-0.2,0.1-0.3,0.3c-0.1,0.1-0.1,0.3-0.2,0.4c0,0.2,0,0.4,0,0.6
					c0,0.3,0,0.5,0.1,0.7c0,0.2,0.1,0.3,0.2,0.5c0.1,0.1,0.2,0.2,0.3,0.2c0.1,0,0.2,0.1,0.4,0.1c0.2,0,0.3,0,0.4-0.1
					s0.2-0.2,0.3-0.3c0.1-0.1,0.1-0.3,0.1-0.4C50.8,237.3,50.8,237.1,50.8,236.9z M56.5,240.9c0,0.3,0,0.6-0.1,0.9
					c-0.1,0.3-0.2,0.5-0.3,0.7c-0.1,0.2-0.3,0.3-0.6,0.4c-0.2,0.1-0.5,0.2-0.8,0.2c-0.3,0-0.6,0-0.8-0.1s-0.4-0.2-0.5-0.4
					s-0.2-0.4-0.3-0.7c-0.1-0.3-0.1-0.6-0.1-0.9c0-0.3,0-0.6,0.1-0.8c0.1-0.3,0.2-0.5,0.3-0.7c0.1-0.2,0.3-0.3,0.5-0.4
					c0.2-0.1,0.5-0.2,0.8-0.2c0.3,0,0.6,0.1,0.8,0.2c0.2,0.1,0.4,0.3,0.5,0.5c0.1,0.2,0.2,0.4,0.3,0.7
					C56.4,240.3,56.5,240.6,56.5,240.9z M55.6,240.9c0-0.2,0-0.4,0-0.6s-0.1-0.3-0.2-0.5c-0.1-0.1-0.2-0.2-0.3-0.3
					c-0.1-0.1-0.2-0.1-0.4-0.1c-0.1,0-0.3,0-0.4,0.1s-0.2,0.1-0.3,0.3c-0.1,0.1-0.1,0.3-0.2,0.4c0,0.2,0,0.4,0,0.6
					c0,0.3,0,0.5,0.1,0.7c0,0.2,0.1,0.3,0.2,0.5c0.1,0.1,0.2,0.2,0.3,0.2c0.1,0,0.2,0.1,0.4,0.1c0.2,0,0.3,0,0.4-0.1
					s0.2-0.2,0.3-0.3c0.1-0.1,0.1-0.3,0.1-0.4C55.6,241.3,55.6,241.1,55.6,240.9z"/>
				<path id="XMLID_163_" class="st1" d="M62.8,235.3c0,0.1,0,0.1,0,0.2c0,0.1,0,0.1,0,0.2c0,0.1,0,0.1,0,0.2c0,0.1,0,0.1-0.1,0.2
					l-2.9,6.7c0,0,0,0.1-0.1,0.1s-0.1,0.1-0.1,0.1c0,0-0.1,0-0.2,0s-0.2,0-0.3,0c-0.1,0-0.3,0-0.3,0c-0.1,0-0.1,0-0.2-0.1
					c0,0-0.1-0.1,0-0.1c0,0,0-0.1,0-0.1l3.1-6.9h-3.9c-0.1,0-0.1,0-0.2-0.1c0-0.1-0.1-0.2-0.1-0.4c0-0.1,0-0.1,0-0.2
					c0-0.1,0-0.1,0-0.1c0,0,0-0.1,0.1-0.1c0,0,0.1,0,0.1,0h4.7c0.1,0,0.1,0,0.2,0s0.1,0,0.1,0.1c0,0,0,0.1,0.1,0.1
					C62.8,235.1,62.8,235.2,62.8,235.3z"/>
				<path id="XMLID_165_" class="st1" d="M69.5,240.3c0,0.4-0.1,0.8-0.2,1.2c-0.1,0.3-0.4,0.6-0.6,0.9c-0.3,0.2-0.6,0.4-1,0.5
					s-0.8,0.2-1.2,0.2c-0.3,0-0.5,0-0.7-0.1c-0.2,0-0.4-0.1-0.6-0.1c-0.2-0.1-0.3-0.1-0.4-0.2c-0.1,0-0.2-0.1-0.2-0.1
					c0,0-0.1-0.1-0.1-0.1s0-0.1,0-0.1c0,0,0-0.1,0-0.1c0-0.1,0-0.1,0-0.2c0-0.1,0-0.1,0-0.2c0-0.1,0-0.1,0-0.1s0-0.1,0.1-0.1
					c0,0,0,0,0.1,0c0,0,0.1,0,0.2,0.1c0.1,0.1,0.2,0.1,0.4,0.2c0.1,0.1,0.3,0.1,0.5,0.2c0.2,0.1,0.5,0.1,0.8,0.1
					c0.3,0,0.5,0,0.8-0.1c0.2-0.1,0.4-0.2,0.6-0.3c0.2-0.1,0.3-0.3,0.4-0.5c0.1-0.2,0.1-0.5,0.1-0.8c0-0.3,0-0.5-0.1-0.7
					c-0.1-0.2-0.2-0.4-0.4-0.5c-0.2-0.1-0.4-0.2-0.6-0.3c-0.3-0.1-0.6-0.1-0.9-0.1c-0.3,0-0.5,0-0.7,0s-0.4,0-0.5,0
					c-0.1,0-0.2,0-0.3-0.1c0-0.1-0.1-0.2-0.1-0.3v-3.3c0-0.1,0-0.2,0.1-0.3c0.1-0.1,0.2-0.1,0.3-0.1h3.6c0,0,0.1,0,0.1,0
					c0,0,0.1,0,0.1,0.1c0,0,0,0.1,0,0.1c0,0.1,0,0.1,0,0.2c0,0.2,0,0.3-0.1,0.3c0,0.1-0.1,0.1-0.2,0.1h-2.9v2.3c0.1,0,0.3,0,0.4,0
					c0.1,0,0.3,0,0.5,0c0.4,0,0.8,0.1,1.2,0.2c0.3,0.1,0.6,0.3,0.8,0.5c0.2,0.2,0.4,0.4,0.5,0.7S69.5,240,69.5,240.3z"/>
			</g>
			<g id="XMLID_120_">
				<path id="XMLID_121_" class="st1" d="M51.7,236.8c0,0.3,0,0.6-0.1,0.9c-0.1,0.3-0.2,0.5-0.3,0.7c-0.1,0.2-0.3,0.3-0.6,0.4
					c-0.2,0.1-0.5,0.2-0.8,0.2c-0.3,0-0.6,0-0.8-0.1s-0.4-0.2-0.5-0.4s-0.2-0.4-0.3-0.7c-0.1-0.3-0.1-0.6-0.1-0.9
					c0-0.3,0-0.6,0.1-0.8c0.1-0.3,0.2-0.5,0.3-0.7c0.1-0.2,0.3-0.3,0.5-0.4c0.2-0.1,0.5-0.2,0.8-0.2c0.3,0,0.6,0.1,0.8,0.2
					c0.2,0.1,0.4,0.3,0.5,0.5c0.1,0.2,0.2,0.4,0.3,0.7C51.7,236.3,51.7,236.5,51.7,236.8z M49.9,243C49.9,243,49.9,243,49.9,243
					c-0.1,0.1-0.1,0.1-0.2,0.1s-0.1,0-0.2,0c-0.1,0-0.1,0-0.2,0c-0.1,0-0.2,0-0.2,0s-0.1,0-0.1-0.1c0,0,0-0.1,0-0.1
					c0,0,0-0.1,0.1-0.1l5.6-8.1c0,0,0-0.1,0.1-0.1c0,0,0.1,0,0.1-0.1c0,0,0.1,0,0.2,0c0.1,0,0.1,0,0.2,0s0.2,0,0.2,0
					c0.1,0,0.1,0,0.1,0.1c0,0,0,0.1,0,0.1c0,0,0,0.1-0.1,0.1L49.9,243z M50.8,236.9c0-0.2,0-0.4,0-0.6c0-0.2-0.1-0.3-0.2-0.5
					s-0.2-0.2-0.3-0.3c-0.1-0.1-0.2-0.1-0.4-0.1c-0.1,0-0.3,0-0.4,0.1s-0.2,0.1-0.3,0.3c-0.1,0.1-0.1,0.3-0.2,0.4c0,0.2,0,0.4,0,0.6
					c0,0.3,0,0.5,0.1,0.7c0,0.2,0.1,0.3,0.2,0.5c0.1,0.1,0.2,0.2,0.3,0.2c0.1,0,0.2,0.1,0.4,0.1c0.2,0,0.3,0,0.4-0.1
					s0.2-0.2,0.3-0.3c0.1-0.1,0.1-0.3,0.1-0.4C50.8,237.3,50.8,237.1,50.8,236.9z M56.5,240.9c0,0.3,0,0.6-0.1,0.9
					c-0.1,0.3-0.2,0.5-0.3,0.7c-0.1,0.2-0.3,0.3-0.6,0.4c-0.2,0.1-0.5,0.2-0.8,0.2c-0.3,0-0.6,0-0.8-0.1s-0.4-0.2-0.5-0.4
					s-0.2-0.4-0.3-0.7c-0.1-0.3-0.1-0.6-0.1-0.9c0-0.3,0-0.6,0.1-0.8c0.1-0.3,0.2-0.5,0.3-0.7c0.1-0.2,0.3-0.3,0.5-0.4
					c0.2-0.1,0.5-0.2,0.8-0.2c0.3,0,0.6,0.1,0.8,0.2c0.2,0.1,0.4,0.3,0.5,0.5c0.1,0.2,0.2,0.4,0.3,0.7
					C56.4,240.3,56.5,240.6,56.5,240.9z M55.6,240.9c0-0.2,0-0.4,0-0.6s-0.1-0.3-0.2-0.5c-0.1-0.1-0.2-0.2-0.3-0.3
					c-0.1-0.1-0.2-0.1-0.4-0.1c-0.1,0-0.3,0-0.4,0.1s-0.2,0.1-0.3,0.3c-0.1,0.1-0.1,0.3-0.2,0.4c0,0.2,0,0.4,0,0.6
					c0,0.3,0,0.5,0.1,0.7c0,0.2,0.1,0.3,0.2,0.5c0.1,0.1,0.2,0.2,0.3,0.2c0.1,0,0.2,0.1,0.4,0.1c0.2,0,0.3,0,0.4-0.1
					s0.2-0.2,0.3-0.3c0.1-0.1,0.1-0.3,0.1-0.4C55.6,241.3,55.6,241.1,55.6,240.9z"/>
				<path id="XMLID_127_" class="st1" d="M62.8,235.3c0,0.1,0,0.1,0,0.2c0,0.1,0,0.1,0,0.2c0,0.1,0,0.1,0,0.2c0,0.1,0,0.1-0.1,0.2
					l-2.9,6.7c0,0,0,0.1-0.1,0.1s-0.1,0.1-0.1,0.1c0,0-0.1,0-0.2,0s-0.2,0-0.3,0c-0.1,0-0.3,0-0.3,0c-0.1,0-0.1,0-0.2-0.1
					c0,0-0.1-0.1,0-0.1c0,0,0-0.1,0-0.1l3.1-6.9h-3.9c-0.1,0-0.1,0-0.2-0.1c0-0.1-0.1-0.2-0.1-0.4c0-0.1,0-0.1,0-0.2
					c0-0.1,0-0.1,0-0.1c0,0,0-0.1,0.1-0.1c0,0,0.1,0,0.1,0h4.7c0.1,0,0.1,0,0.2,0s0.1,0,0.1,0.1c0,0,0,0.1,0.1,0.1
					C62.8,235.1,62.8,235.2,62.8,235.3z"/>
				<path id="XMLID_129_" class="st1" d="M69.5,240.3c0,0.4-0.1,0.8-0.2,1.2c-0.1,0.3-0.4,0.6-0.6,0.9c-0.3,0.2-0.6,0.4-1,0.5
					s-0.8,0.2-1.2,0.2c-0.3,0-0.5,0-0.7-0.1c-0.2,0-0.4-0.1-0.6-0.1c-0.2-0.1-0.3-0.1-0.4-0.2c-0.1,0-0.2-0.1-0.2-0.1
					c0,0-0.1-0.1-0.1-0.1s0-0.1,0-0.1c0,0,0-0.1,0-0.1c0-0.1,0-0.1,0-0.2c0-0.1,0-0.1,0-0.2c0-0.1,0-0.1,0-0.1s0-0.1,0.1-0.1
					c0,0,0,0,0.1,0c0,0,0.1,0,0.2,0.1c0.1,0.1,0.2,0.1,0.4,0.2c0.1,0.1,0.3,0.1,0.5,0.2c0.2,0.1,0.5,0.1,0.8,0.1
					c0.3,0,0.5,0,0.8-0.1c0.2-0.1,0.4-0.2,0.6-0.3c0.2-0.1,0.3-0.3,0.4-0.5c0.1-0.2,0.1-0.5,0.1-0.8c0-0.3,0-0.5-0.1-0.7
					c-0.1-0.2-0.2-0.4-0.4-0.5c-0.2-0.1-0.4-0.2-0.6-0.3c-0.3-0.1-0.6-0.1-0.9-0.1c-0.3,0-0.5,0-0.7,0s-0.4,0-0.5,0
					c-0.1,0-0.2,0-0.3-0.1c0-0.1-0.1-0.2-0.1-0.3v-3.3c0-0.1,0-0.2,0.1-0.3c0.1-0.1,0.2-0.1,0.3-0.1h3.6c0,0,0.1,0,0.1,0
					c0,0,0.1,0,0.1,0.1c0,0,0,0.1,0,0.1c0,0.1,0,0.1,0,0.2c0,0.2,0,0.3-0.1,0.3c0,0.1-0.1,0.1-0.2,0.1h-2.9v2.3c0.1,0,0.3,0,0.4,0
					c0.1,0,0.3,0,0.5,0c0.4,0,0.8,0.1,1.2,0.2c0.3,0.1,0.6,0.3,0.8,0.5c0.2,0.2,0.4,0.4,0.5,0.7S69.5,240,69.5,240.3z"/>
			</g>
			<g id="XMLID_493_">
				<path id="XMLID_85_" class="st1" d="M51.7,236.8c0,0.3,0,0.6-0.1,0.9c-0.1,0.3-0.2,0.5-0.3,0.7c-0.1,0.2-0.3,0.3-0.6,0.4
					c-0.2,0.1-0.5,0.2-0.8,0.2c-0.3,0-0.6,0-0.8-0.1s-0.4-0.2-0.5-0.4s-0.2-0.4-0.3-0.7c-0.1-0.3-0.1-0.6-0.1-0.9
					c0-0.3,0-0.6,0.1-0.8c0.1-0.3,0.2-0.5,0.3-0.7c0.1-0.2,0.3-0.3,0.5-0.4c0.2-0.1,0.5-0.2,0.8-0.2c0.3,0,0.6,0.1,0.8,0.2
					c0.2,0.1,0.4,0.3,0.5,0.5c0.1,0.2,0.2,0.4,0.3,0.7C51.7,236.3,51.7,236.5,51.7,236.8z M49.9,243C49.9,243,49.9,243,49.9,243
					c-0.1,0.1-0.1,0.1-0.2,0.1s-0.1,0-0.2,0c-0.1,0-0.1,0-0.2,0c-0.1,0-0.2,0-0.2,0s-0.1,0-0.1-0.1c0,0,0-0.1,0-0.1
					c0,0,0-0.1,0.1-0.1l5.6-8.1c0,0,0-0.1,0.1-0.1c0,0,0.1,0,0.1-0.1c0,0,0.1,0,0.2,0c0.1,0,0.1,0,0.2,0s0.2,0,0.2,0
					c0.1,0,0.1,0,0.1,0.1c0,0,0,0.1,0,0.1c0,0,0,0.1-0.1,0.1L49.9,243z M50.8,236.9c0-0.2,0-0.4,0-0.6c0-0.2-0.1-0.3-0.2-0.5
					s-0.2-0.2-0.3-0.3c-0.1-0.1-0.2-0.1-0.4-0.1c-0.1,0-0.3,0-0.4,0.1s-0.2,0.1-0.3,0.3c-0.1,0.1-0.1,0.3-0.2,0.4c0,0.2,0,0.4,0,0.6
					c0,0.3,0,0.5,0.1,0.7c0,0.2,0.1,0.3,0.2,0.5c0.1,0.1,0.2,0.2,0.3,0.2c0.1,0,0.2,0.1,0.4,0.1c0.2,0,0.3,0,0.4-0.1
					s0.2-0.2,0.3-0.3c0.1-0.1,0.1-0.3,0.1-0.4C50.8,237.3,50.8,237.1,50.8,236.9z M56.5,240.9c0,0.3,0,0.6-0.1,0.9
					c-0.1,0.3-0.2,0.5-0.3,0.7c-0.1,0.2-0.3,0.3-0.6,0.4c-0.2,0.1-0.5,0.2-0.8,0.2c-0.3,0-0.6,0-0.8-0.1s-0.4-0.2-0.5-0.4
					s-0.2-0.4-0.3-0.7c-0.1-0.3-0.1-0.6-0.1-0.9c0-0.3,0-0.6,0.1-0.8c0.1-0.3,0.2-0.5,0.3-0.7c0.1-0.2,0.3-0.3,0.5-0.4
					c0.2-0.1,0.5-0.2,0.8-0.2c0.3,0,0.6,0.1,0.8,0.2c0.2,0.1,0.4,0.3,0.5,0.5c0.1,0.2,0.2,0.4,0.3,0.7
					C56.4,240.3,56.5,240.6,56.5,240.9z M55.6,240.9c0-0.2,0-0.4,0-0.6s-0.1-0.3-0.2-0.5c-0.1-0.1-0.2-0.2-0.3-0.3
					c-0.1-0.1-0.2-0.1-0.4-0.1c-0.1,0-0.3,0-0.4,0.1s-0.2,0.1-0.3,0.3c-0.1,0.1-0.1,0.3-0.2,0.4c0,0.2,0,0.4,0,0.6
					c0,0.3,0,0.5,0.1,0.7c0,0.2,0.1,0.3,0.2,0.5c0.1,0.1,0.2,0.2,0.3,0.2c0.1,0,0.2,0.1,0.4,0.1c0.2,0,0.3,0,0.4-0.1
					s0.2-0.2,0.3-0.3c0.1-0.1,0.1-0.3,0.1-0.4C55.6,241.3,55.6,241.1,55.6,240.9z"/>
				<path id="XMLID_91_" class="st1" d="M62.8,235.3c0,0.1,0,0.1,0,0.2c0,0.1,0,0.1,0,0.2c0,0.1,0,0.1,0,0.2c0,0.1,0,0.1-0.1,0.2
					l-2.9,6.7c0,0,0,0.1-0.1,0.1s-0.1,0.1-0.1,0.1c0,0-0.1,0-0.2,0s-0.2,0-0.3,0c-0.1,0-0.3,0-0.3,0c-0.1,0-0.1,0-0.2-0.1
					c0,0-0.1-0.1,0-0.1c0,0,0-0.1,0-0.1l3.1-6.9h-3.9c-0.1,0-0.1,0-0.2-0.1c0-0.1-0.1-0.2-0.1-0.4c0-0.1,0-0.1,0-0.2
					c0-0.1,0-0.1,0-0.1c0,0,0-0.1,0.1-0.1c0,0,0.1,0,0.1,0h4.7c0.1,0,0.1,0,0.2,0s0.1,0,0.1,0.1c0,0,0,0.1,0.1,0.1
					C62.8,235.1,62.8,235.2,62.8,235.3z"/>
				<path id="XMLID_93_" class="st1" d="M69.5,240.3c0,0.4-0.1,0.8-0.2,1.2c-0.1,0.3-0.4,0.6-0.6,0.9c-0.3,0.2-0.6,0.4-1,0.5
					s-0.8,0.2-1.2,0.2c-0.3,0-0.5,0-0.7-0.1c-0.2,0-0.4-0.1-0.6-0.1c-0.2-0.1-0.3-0.1-0.4-0.2c-0.1,0-0.2-0.1-0.2-0.1
					c0,0-0.1-0.1-0.1-0.1s0-0.1,0-0.1c0,0,0-0.1,0-0.1c0-0.1,0-0.1,0-0.2c0-0.1,0-0.1,0-0.2c0-0.1,0-0.1,0-0.1s0-0.1,0.1-0.1
					c0,0,0,0,0.1,0c0,0,0.1,0,0.2,0.1c0.1,0.1,0.2,0.1,0.4,0.2c0.1,0.1,0.3,0.1,0.5,0.2c0.2,0.1,0.5,0.1,0.8,0.1
					c0.3,0,0.5,0,0.8-0.1c0.2-0.1,0.4-0.2,0.6-0.3c0.2-0.1,0.3-0.3,0.4-0.5c0.1-0.2,0.1-0.5,0.1-0.8c0-0.3,0-0.5-0.1-0.7
					c-0.1-0.2-0.2-0.4-0.4-0.5c-0.2-0.1-0.4-0.2-0.6-0.3c-0.3-0.1-0.6-0.1-0.9-0.1c-0.3,0-0.5,0-0.7,0s-0.4,0-0.5,0
					c-0.1,0-0.2,0-0.3-0.1c0-0.1-0.1-0.2-0.1-0.3v-3.3c0-0.1,0-0.2,0.1-0.3c0.1-0.1,0.2-0.1,0.3-0.1h3.6c0,0,0.1,0,0.1,0
					c0,0,0.1,0,0.1,0.1c0,0,0,0.1,0,0.1c0,0.1,0,0.1,0,0.2c0,0.2,0,0.3-0.1,0.3c0,0.1-0.1,0.1-0.2,0.1h-2.9v2.3c0.1,0,0.3,0,0.4,0
					c0.1,0,0.3,0,0.5,0c0.4,0,0.8,0.1,1.2,0.2c0.3,0.1,0.6,0.3,0.8,0.5c0.2,0.2,0.4,0.4,0.5,0.7S69.5,240,69.5,240.3z"/>
			</g>
			<g id="XMLID_499_">
				<rect id="XMLID_500_" x="74" y="237.8" class="st2" width="123" height="5"/>
				<g id="XMLID_501_">
					<path id="XMLID_17_" class="st2" d="M205.5,249.7c-5.1,0-9.2-4.1-9.2-9.2c0-5.1,4.1-9.2,9.2-9.2s9.2,4.1,9.2,9.2
						C214.7,245.5,210.6,249.7,205.5,249.7z"/>
					<path id="XMLID_13_" class="st0" d="M205.5,232.2c4.5,0,8.2,3.7,8.2,8.2s-3.7,8.2-8.2,8.2s-8.2-3.7-8.2-8.2
						S200.9,232.2,205.5,232.2 M205.5,230.2c-5.6,0-10.2,4.6-10.2,10.2s4.6,10.2,10.2,10.2s10.2-4.6,10.2-10.2
						S211.1,230.2,205.5,230.2L205.5,230.2z"/>
				</g>
				<g id="XMLID_502_">
					<circle id="XMLID_20_" class="st0" cx="205.5" cy="240.4" r="3.8"/>
				</g>
			</g>
		</g>
	</g>
</g>
</svg>
