<?xml version="1.0" encoding="utf-8"?>
<!-- Generator: Adobe Illustrator 19.0.0, SVG Export Plug-In . SVG Version: 6.00 Build 0)  -->
<svg version="1.1" id="Layer_1" xmlns="http://www.w3.org/2000/svg" xmlns:xlink="http://www.w3.org/1999/xlink" x="0px" y="0px"
	 viewBox="0 0 300 300" style="enable-background:new 0 0 300 300;" xml:space="preserve">
<style type="text/css">
	.st0{fill:#D9042C;}
	.st1{fill:#F7F7F7;}
	.st2{clip-path:url(#XMLID_94_);fill:#F7F7F7;}
	.st3{clip-path:url(#XMLID_95_);fill:#6C0C22;}
	.st4{clip-path:url(#XMLID_96_);fill:#6C0C22;}
	.st5{clip-path:url(#XMLID_97_);fill:#6C0C22;}
	.st6{font-family:'Calibri';}
	.st7{font-size:23.8657px;}
	.st8{clip-path:url(#XMLID_98_);fill:#F7F7F7;}
	.st9{clip-path:url(#XMLID_99_);fill:#F7F7F7;}
	.st10{clip-path:url(#XMLID_100_);fill:#6C0C22;}
	.st11{clip-path:url(#XMLID_101_);fill:#6C0C22;}
	.st12{clip-path:url(#XMLID_102_);fill:#F7F7F7;}
	.st13{clip-path:url(#XMLID_103_);fill:#F7F7F7;}
	.st14{clip-path:url(#XMLID_104_);fill:#F7F7F7;}
	.st15{clip-path:url(#XMLID_105_);fill:#F7F7F7;}
	.st16{clip-path:url(#XMLID_131_);fill:#6C0C22;}
	.st17{clip-path:url(#XMLID_132_);fill:#6C0C22;}
	.st18{clip-path:url(#XMLID_133_);fill:#6C0C22;}
	.st19{clip-path:url(#XMLID_134_);fill:#6C0C22;}
	.st20{clip-path:url(#XMLID_135_);fill:#F7F7F7;}
	.st21{clip-path:url(#XMLID_136_);fill:#F7F7F7;}
	.st22{clip-path:url(#XMLID_137_);fill:#F7F7F7;}
	.st23{clip-path:url(#XMLID_138_);fill:#6C0C22;}
	.st24{clip-path:url(#XMLID_152_);fill:#F7F7F7;}
	.st25{clip-path:url(#XMLID_153_);fill:#F7F7F7;}
	.st26{clip-path:url(#XMLID_154_);fill:#F7F7F7;}
	.st27{clip-path:url(#XMLID_155_);fill:#F7F7F7;}
</style>
<g id="XMLID_620_">
	<circle id="XMLID_975_" class="st0" cx="150" cy="150" r="150"/>
	<g id="XMLID_602_">
		<g id="XMLID_603_">
			<g id="XMLID_658_">
				<g id="XMLID_685_">
					<rect id="XMLID_686_" x="126.2" y="166.8" class="st1" width="47" height="48"/>
				</g>
				<g id="XMLID_660_">
					<g id="XMLID_679_">
						<g id="XMLID_680_">
							<defs>
								<rect id="XMLID_681_" x="127.2" y="155.8" width="9" height="8"/>
							</defs>
							<clipPath id="XMLID_94_">
								<use xlink:href="#XMLID_681_"  style="overflow:visible;"/>
							</clipPath>
							<path id="XMLID_682_" class="st2" d="M136,159.4c0.1-0.1,0.1-0.2,0.1-0.3c0-0.1-0.1-0.2-0.3-0.2l-2.5-0.2
								c-0.1,0-0.2-0.1-0.3-0.2l-1-2.3c-0.1-0.1-0.2-0.2-0.3-0.2c-0.1,0-0.2,0.1-0.3,0.2l-1,2.3c0,0.1-0.1,0.2-0.3,0.2l-2.5,0.2
								c-0.1,0-0.2,0.1-0.3,0.2c0,0.1,0,0.3,0.1,0.3l1.9,1.6c0.1,0.1,0.1,0.2,0.1,0.3l-0.6,2.5c0,0.1,0,0.3,0.1,0.3
								c0.1,0.1,0.2,0.1,0.3,0l2.2-1.3c0.1-0.1,0.2-0.1,0.3,0l2.2,1.3c0.1,0.1,0.2,0.1,0.3,0c0.1-0.1,0.1-0.2,0.1-0.3l-0.6-2.5
								c0-0.1,0-0.2,0.1-0.3L136,159.4z M136,159.4"/>
						</g>
					</g>
					<g id="XMLID_673_">
						<g id="XMLID_674_">
							<defs>
								<rect id="XMLID_675_" x="139.2" y="155.8" width="9" height="8"/>
							</defs>
							<clipPath id="XMLID_95_">
								<use xlink:href="#XMLID_675_"  style="overflow:visible;"/>
							</clipPath>
							<path id="XMLID_676_" class="st3" d="M147.9,159.4c0.1-0.1,0.1-0.2,0.1-0.3c0-0.1-0.1-0.2-0.3-0.2l-2.5-0.2
								c-0.1,0-0.2-0.1-0.3-0.2l-1-2.3c-0.1-0.1-0.2-0.2-0.3-0.2c-0.1,0-0.2,0.1-0.3,0.2l-1,2.3c0,0.1-0.1,0.2-0.3,0.2l-2.5,0.2
								c-0.1,0-0.2,0.1-0.3,0.2c0,0.1,0,0.3,0.1,0.3l1.9,1.6c0.1,0.1,0.1,0.2,0.1,0.3l-0.6,2.5c0,0.1,0,0.3,0.1,0.3
								c0.1,0.1,0.2,0.1,0.3,0l2.2-1.3c0.1-0.1,0.2-0.1,0.3,0l2.2,1.3c0.1,0.1,0.2,0.1,0.3,0c0.1-0.1,0.1-0.2,0.1-0.3l-0.6-2.5
								c0-0.1,0-0.2,0.1-0.3L147.9,159.4z M147.9,159.4"/>
						</g>
					</g>
					<g id="XMLID_667_">
						<g id="XMLID_668_">
							<defs>
								<rect id="XMLID_669_" x="151.2" y="155.8" width="9" height="8"/>
							</defs>
							<clipPath id="XMLID_96_">
								<use xlink:href="#XMLID_669_"  style="overflow:visible;"/>
							</clipPath>
							<path id="XMLID_670_" class="st4" d="M159.8,159.4c0.1-0.1,0.1-0.2,0.1-0.3c0-0.1-0.1-0.2-0.3-0.2l-2.5-0.2
								c-0.1,0-0.2-0.1-0.3-0.2l-1-2.3c-0.1-0.1-0.2-0.2-0.3-0.2c-0.1,0-0.2,0.1-0.3,0.2l-1,2.3c0,0.1-0.1,0.2-0.3,0.2l-2.5,0.2
								c-0.1,0-0.2,0.1-0.3,0.2c0,0.1,0,0.3,0.1,0.3l1.9,1.6c0.1,0.1,0.1,0.2,0.1,0.3l-0.6,2.5c0,0.1,0,0.3,0.1,0.3
								c0.1,0.1,0.2,0.1,0.3,0l2.2-1.3c0.1-0.1,0.2-0.1,0.3,0l2.2,1.3c0.1,0.1,0.2,0.1,0.3,0c0.1-0.1,0.1-0.2,0.1-0.3l-0.6-2.5
								c0-0.1,0-0.2,0.1-0.3L159.8,159.4z M159.8,159.4"/>
						</g>
					</g>
					<g id="XMLID_661_">
						<g id="XMLID_662_">
							<defs>
								<rect id="XMLID_663_" x="163.2" y="155.8" width="9" height="8"/>
							</defs>
							<clipPath id="XMLID_97_">
								<use xlink:href="#XMLID_663_"  style="overflow:visible;"/>
							</clipPath>
							<path id="XMLID_664_" class="st5" d="M171.8,159.4c0.1-0.1,0.1-0.2,0.1-0.3c0-0.1-0.1-0.2-0.3-0.2l-2.5-0.2
								c-0.1,0-0.2-0.1-0.3-0.2l-1-2.3c-0.1-0.1-0.2-0.2-0.3-0.2c-0.1,0-0.2,0.1-0.3,0.2l-1,2.3c0,0.1-0.1,0.2-0.3,0.2l-2.5,0.2
								c-0.1,0-0.2,0.1-0.3,0.2c0,0.1,0,0.3,0.1,0.3l1.9,1.6c0.1,0.1,0.1,0.2,0.1,0.3l-0.6,2.5c0,0.1,0,0.3,0.1,0.3
								c0.1,0.1,0.2,0.1,0.3,0l2.2-1.3c0.1-0.1,0.2-0.1,0.3,0l2.2,1.3c0.1,0.1,0.2,0.1,0.3,0c0.1-0.1,0.1-0.2,0.1-0.3l-0.6-2.5
								c0-0.1,0-0.2,0.1-0.3L171.8,159.4z M171.8,159.4"/>
						</g>
					</g>
				</g>
				<text id="XMLID_659_" transform="matrix(1 0 0 1 149.8239 197.0832)" class="st0 st6 st7">5</text>
			</g>
			<g id="XMLID_629_">
				<g id="XMLID_656_">
					<rect id="XMLID_657_" x="196.2" y="166.8" class="st1" width="48" height="48"/>
				</g>
				<g id="XMLID_631_">
					<g id="XMLID_650_">
						<g id="XMLID_651_">
							<defs>
								<rect id="XMLID_652_" x="198.2" y="155.8" width="8" height="8"/>
							</defs>
							<clipPath id="XMLID_98_">
								<use xlink:href="#XMLID_652_"  style="overflow:visible;"/>
							</clipPath>
							<path id="XMLID_653_" class="st8" d="M206.3,159.4c0.1-0.1,0.1-0.2,0.1-0.3c0-0.1-0.1-0.2-0.3-0.2l-2.5-0.2
								c-0.1,0-0.2-0.1-0.3-0.2l-1-2.3c-0.1-0.1-0.2-0.2-0.3-0.2c-0.1,0-0.2,0.1-0.3,0.2l-1,2.3c0,0.1-0.1,0.2-0.3,0.2l-2.5,0.2
								c-0.1,0-0.2,0.1-0.3,0.2c0,0.1,0,0.3,0.1,0.3l1.9,1.6c0.1,0.1,0.1,0.2,0.1,0.3l-0.6,2.5c0,0.1,0,0.3,0.1,0.3
								c0.1,0.1,0.2,0.1,0.3,0l2.2-1.3c0.1-0.1,0.2-0.1,0.3,0l2.2,1.3c0.1,0.1,0.2,0.1,0.3,0c0.1-0.1,0.1-0.2,0.1-0.3l-0.6-2.5
								c0-0.1,0-0.2,0.1-0.3L206.3,159.4z M206.3,159.4"/>
						</g>
					</g>
					<g id="XMLID_644_">
						<g id="XMLID_645_">
							<defs>
								<rect id="XMLID_646_" x="209.2" y="155.8" width="9" height="8"/>
							</defs>
							<clipPath id="XMLID_99_">
								<use xlink:href="#XMLID_646_"  style="overflow:visible;"/>
							</clipPath>
							<path id="XMLID_647_" class="st9" d="M218.2,159.4c0.1-0.1,0.1-0.2,0.1-0.3c0-0.1-0.1-0.2-0.3-0.2l-2.5-0.2
								c-0.1,0-0.2-0.1-0.3-0.2l-1-2.3c-0.1-0.1-0.2-0.2-0.3-0.2c-0.1,0-0.2,0.1-0.3,0.2l-1,2.3c0,0.1-0.1,0.2-0.3,0.2l-2.5,0.2
								c-0.1,0-0.2,0.1-0.3,0.2c0,0.1,0,0.3,0.1,0.3l1.9,1.6c0.1,0.1,0.1,0.2,0.1,0.3l-0.6,2.5c0,0.1,0,0.3,0.1,0.3
								c0.1,0.1,0.2,0.1,0.3,0l2.2-1.3c0.1-0.1,0.2-0.1,0.3,0l2.2,1.3c0.1,0.1,0.2,0.1,0.3,0c0.1-0.1,0.1-0.2,0.1-0.3l-0.6-2.5
								c0-0.1,0-0.2,0.1-0.3L218.2,159.4z M218.2,159.4"/>
						</g>
					</g>
					<g id="XMLID_638_">
						<g id="XMLID_639_">
							<defs>
								<rect id="XMLID_640_" x="221.2" y="155.8" width="9" height="8"/>
							</defs>
							<clipPath id="XMLID_100_">
								<use xlink:href="#XMLID_640_"  style="overflow:visible;"/>
							</clipPath>
							<path id="XMLID_641_" class="st10" d="M230.2,159.4c0.1-0.1,0.1-0.2,0.1-0.3c0-0.1-0.1-0.2-0.3-0.2l-2.5-0.2
								c-0.1,0-0.2-0.1-0.3-0.2l-1-2.3c-0.1-0.1-0.2-0.2-0.3-0.2c-0.1,0-0.2,0.1-0.3,0.2l-1,2.3c0,0.1-0.1,0.2-0.3,0.2l-2.5,0.2
								c-0.1,0-0.2,0.1-0.3,0.2c0,0.1,0,0.3,0.1,0.3l1.9,1.6c0.1,0.1,0.1,0.2,0.1,0.3l-0.6,2.5c0,0.1,0,0.3,0.1,0.3
								c0.1,0.1,0.2,0.1,0.3,0l2.2-1.3c0.1-0.1,0.2-0.1,0.3,0l2.2,1.3c0.1,0.1,0.2,0.1,0.3,0c0.1-0.1,0.1-0.2,0.1-0.3l-0.6-2.5
								c0-0.1,0-0.2,0.1-0.3L230.2,159.4z M230.2,159.4"/>
						</g>
					</g>
					<g id="XMLID_632_">
						<g id="XMLID_633_">
							<defs>
								<rect id="XMLID_634_" x="233.2" y="155.8" width="9" height="8"/>
							</defs>
							<clipPath id="XMLID_101_">
								<use xlink:href="#XMLID_634_"  style="overflow:visible;"/>
							</clipPath>
							<path id="XMLID_635_" class="st11" d="M242.1,159.4c0.1-0.1,0.1-0.2,0.1-0.3c0-0.1-0.1-0.2-0.3-0.2l-2.5-0.2
								c-0.1,0-0.2-0.1-0.3-0.2l-1-2.3c-0.1-0.1-0.2-0.2-0.3-0.2c-0.1,0-0.2,0.1-0.3,0.2l-1,2.3c0,0.1-0.1,0.2-0.3,0.2l-2.5,0.2
								c-0.1,0-0.2,0.1-0.3,0.2c0,0.1,0,0.3,0.1,0.3l1.9,1.6c0.1,0.1,0.1,0.2,0.1,0.3l-0.6,2.5c0,0.1,0,0.3,0.1,0.3
								c0.1,0.1,0.2,0.1,0.3,0l2.2-1.3c0.1-0.1,0.2-0.1,0.3,0l2.2,1.3c0.1,0.1,0.2,0.1,0.3,0c0.1-0.1,0.1-0.2,0.1-0.3l-0.6-2.5
								c0-0.1,0-0.2,0.1-0.3L242.1,159.4z M242.1,159.4"/>
						</g>
					</g>
				</g>
				<text id="XMLID_630_" transform="matrix(1 0 0 1 220.1759 197.0832)" class="st0 st6 st7">6</text>
			</g>
			<g id="XMLID_604_">
				<g id="XMLID_714_">
					<rect id="XMLID_715_" x="55.2" y="166.8" class="st1" width="48" height="48"/>
				</g>
				<g id="XMLID_689_">
					<g id="XMLID_708_">
						<g id="XMLID_709_">
							<defs>
								<rect id="XMLID_710_" x="57.2" y="155.8" width="9" height="8"/>
							</defs>
							<clipPath id="XMLID_102_">
								<use xlink:href="#XMLID_710_"  style="overflow:visible;"/>
							</clipPath>
							<path id="XMLID_711_" class="st12" d="M65.6,159.4c0.1-0.1,0.1-0.2,0.1-0.3c0-0.1-0.1-0.2-0.3-0.2l-2.5-0.2
								c-0.1,0-0.2-0.1-0.3-0.2l-1-2.3c-0.1-0.1-0.2-0.2-0.3-0.2c-0.1,0-0.2,0.1-0.3,0.2l-1,2.3c0,0.1-0.1,0.2-0.3,0.2l-2.5,0.2
								c-0.1,0-0.2,0.1-0.3,0.2c0,0.1,0,0.3,0.1,0.3l1.9,1.6c0.1,0.1,0.1,0.2,0.1,0.3l-0.6,2.5c0,0.1,0,0.3,0.1,0.3
								c0.1,0.1,0.2,0.1,0.3,0l2.2-1.3c0.1-0.1,0.2-0.1,0.3,0l2.2,1.3c0.1,0.1,0.2,0.1,0.3,0c0.1-0.1,0.1-0.2,0.1-0.3l-0.6-2.5
								c0-0.1,0-0.2,0.1-0.3L65.6,159.4z M65.6,159.4"/>
						</g>
					</g>
					<g id="XMLID_702_">
						<g id="XMLID_703_">
							<defs>
								<rect id="XMLID_704_" x="69.2" y="155.8" width="8" height="8"/>
							</defs>
							<clipPath id="XMLID_103_">
								<use xlink:href="#XMLID_704_"  style="overflow:visible;"/>
							</clipPath>
							<path id="XMLID_705_" class="st13" d="M77.5,159.4c0.1-0.1,0.1-0.2,0.1-0.3c0-0.1-0.1-0.2-0.3-0.2l-2.5-0.2
								c-0.1,0-0.2-0.1-0.3-0.2l-1-2.3c-0.1-0.1-0.2-0.2-0.3-0.2c-0.1,0-0.2,0.1-0.3,0.2l-1,2.3c0,0.1-0.1,0.2-0.3,0.2l-2.5,0.2
								c-0.1,0-0.2,0.1-0.3,0.2c0,0.1,0,0.3,0.1,0.3l1.9,1.6c0.1,0.1,0.1,0.2,0.1,0.3l-0.6,2.5c0,0.1,0,0.3,0.1,0.3
								c0.1,0.1,0.2,0.1,0.3,0l2.2-1.3c0.1-0.1,0.2-0.1,0.3,0l2.2,1.3c0.1,0.1,0.2,0.1,0.3,0c0.1-0.1,0.1-0.2,0.1-0.3l-0.6-2.5
								c0-0.1,0-0.2,0.1-0.3L77.5,159.4z M77.5,159.4"/>
						</g>
					</g>
					<g id="XMLID_696_">
						<g id="XMLID_697_">
							<defs>
								<rect id="XMLID_698_" x="81.2" y="155.8" width="8" height="8"/>
							</defs>
							<clipPath id="XMLID_104_">
								<use xlink:href="#XMLID_698_"  style="overflow:visible;"/>
							</clipPath>
							<path id="XMLID_699_" class="st14" d="M89.5,159.4c0.1-0.1,0.1-0.2,0.1-0.3c0-0.1-0.1-0.2-0.3-0.2l-2.5-0.2
								c-0.1,0-0.2-0.1-0.3-0.2l-1-2.3c-0.1-0.1-0.2-0.2-0.3-0.2c-0.1,0-0.2,0.1-0.3,0.2l-1,2.3c0,0.1-0.1,0.2-0.3,0.2l-2.5,0.2
								c-0.1,0-0.2,0.1-0.3,0.2c0,0.1,0,0.3,0.1,0.3l1.9,1.6c0.1,0.1,0.1,0.2,0.1,0.3l-0.6,2.5c0,0.1,0,0.3,0.1,0.3
								c0.1,0.1,0.2,0.1,0.3,0l2.2-1.3c0.1-0.1,0.2-0.1,0.3,0l2.2,1.3c0.1,0.1,0.2,0.1,0.3,0c0.1-0.1,0.1-0.2,0.1-0.3l-0.6-2.5
								c0-0.1,0-0.2,0.1-0.3L89.5,159.4z M89.5,159.4"/>
						</g>
					</g>
					<g id="XMLID_690_">
						<g id="XMLID_691_">
							<defs>
								<rect id="XMLID_692_" x="93.2" y="155.8" width="8" height="8"/>
							</defs>
							<clipPath id="XMLID_105_">
								<use xlink:href="#XMLID_692_"  style="overflow:visible;"/>
							</clipPath>
							<path id="XMLID_693_" class="st15" d="M101.4,159.4c0.1-0.1,0.1-0.2,0.1-0.3c0-0.1-0.1-0.2-0.3-0.2l-2.5-0.2
								c-0.1,0-0.2-0.1-0.3-0.2l-1-2.3c-0.1-0.1-0.2-0.2-0.3-0.2c-0.1,0-0.2,0.1-0.3,0.2l-1,2.3c0,0.1-0.1,0.2-0.3,0.2l-2.5,0.2
								c-0.1,0-0.2,0.1-0.3,0.2c0,0.1,0,0.3,0.1,0.3l1.9,1.6c0.1,0.1,0.1,0.2,0.1,0.3l-0.6,2.5c0,0.1,0,0.3,0.1,0.3
								c0.1,0.1,0.2,0.1,0.3,0l2.2-1.3c0.1-0.1,0.2-0.1,0.3,0l2.2,1.3c0.1,0.1,0.2,0.1,0.3,0c0.1-0.1,0.1-0.2,0.1-0.3l-0.6-2.5
								c0-0.1,0-0.2,0.1-0.3L101.4,159.4z M101.4,159.4"/>
						</g>
					</g>
				</g>
				<text id="XMLID_688_" transform="matrix(1 0 0 1 79.4704 197.9875)" class="st0 st6 st7">4</text>
				<g id="XMLID_131_">
					<path id="XMLID_132_" class="st1" d="M55.5,222.6l1.3-0.1v7.3h-1.1L55.5,222.6z M56.7,230.5c0.1,0.1,0.2,0.3,0.2,0.5
						s-0.1,0.4-0.2,0.5c-0.1,0.1-0.3,0.2-0.5,0.2c-0.2,0-0.4-0.1-0.5-0.2c-0.1-0.1-0.2-0.3-0.2-0.5s0.1-0.4,0.2-0.5
						c0.1-0.1,0.3-0.2,0.5-0.2C56.4,230.3,56.6,230.4,56.7,230.5z"/>
					<path id="XMLID_135_" class="st1" d="M58.9,222.6l1.3-0.1v7.3h-1.1L58.9,222.6z M60.1,230.5c0.1,0.1,0.2,0.3,0.2,0.5
						s-0.1,0.4-0.2,0.5c-0.1,0.1-0.3,0.2-0.5,0.2c-0.2,0-0.4-0.1-0.5-0.2c-0.1-0.1-0.2-0.3-0.2-0.5s0.1-0.4,0.2-0.5
						c0.1-0.1,0.3-0.2,0.5-0.2C59.8,230.3,60,230.4,60.1,230.5z"/>
					<path id="XMLID_138_" class="st1" d="M70.3,229.4c0.8,0.7,1.2,1,1.3,1.1h2.3v1.2h-0.8l0.2,0.2c0.1,0.1,0.2,0.2,0.3,0.3
						c-0.6,0.9-1.4,1.5-2.5,1.8c-1,0.3-2,0.4-3.3,0.3c-1.1-0.1-2.2-0.4-3.3-0.8c-1-0.4-1.9-0.9-2.6-1.5l0.1-1.6
						c0.9,1.1,2.4,1.8,4.5,2.4c2.3,0.5,4.1,0.4,5.4-0.5l-1.9-1.5L70.3,229.4z M67.6,235.8c0.1,0.2,0.2,0.3,0.2,0.6
						c0,0.2-0.1,0.4-0.2,0.6c-0.2,0.2-0.3,0.2-0.6,0.2c-0.2,0-0.4-0.1-0.6-0.2c-0.1-0.2-0.2-0.3-0.2-0.6c0-0.2,0.1-0.4,0.2-0.6
						c0.2-0.2,0.3-0.2,0.6-0.2C67.2,235.6,67.4,235.7,67.6,235.8z M69.3,235.8c0.2,0.2,0.2,0.3,0.2,0.6c0,0.2-0.1,0.4-0.2,0.6
						c-0.2,0.2-0.3,0.2-0.6,0.2c-0.2,0-0.4-0.1-0.6-0.2c-0.1-0.2-0.2-0.3-0.2-0.6c0-0.2,0.1-0.4,0.2-0.6c0.2-0.2,0.3-0.2,0.6-0.2
						C68.9,235.6,69.1,235.7,69.3,235.8z"/>
					<path id="XMLID_155_" class="st1" d="M73.6,231.8v-1.2h1.8v-5l1.3-0.1v5.1h0.8v1.2H73.6z M76.6,223.2c0.2,0.1,0.2,0.3,0.2,0.6
						c0,0.2-0.1,0.4-0.2,0.6c-0.2,0.2-0.3,0.2-0.6,0.2c-0.2,0-0.4-0.1-0.6-0.2c-0.1-0.2-0.2-0.3-0.2-0.6c0-0.2,0.1-0.4,0.2-0.6
						c0.1-0.2,0.3-0.2,0.6-0.2C76.2,223,76.4,223.1,76.6,223.2z"/>
					<path id="XMLID_176_" class="st1" d="M77.3,231.8v-1.2h1.8v-5l1.3-0.1v5.1h0.8v1.2H77.3z M80.6,234.2c0,0.2-0.1,0.4-0.2,0.6
						c-0.2,0.2-0.4,0.2-0.5,0.2c-0.2,0-0.4-0.1-0.6-0.2c-0.1-0.2-0.2-0.3-0.2-0.6c0-0.2,0.1-0.4,0.2-0.5c0.2-0.2,0.4-0.3,0.6-0.3
						c0.2,0,0.4,0.1,0.5,0.2C80.5,233.8,80.6,234,80.6,234.2z"/>
					<path id="XMLID_179_" class="st1" d="M81,230.5h5c-1.6-1.1-3-2.6-4.2-4.4l1-0.9c1.5,2.4,3.4,4.1,5.8,5.3h0.9v1.2H81V230.5z
						 M85.5,234.2c0,0.2-0.1,0.4-0.2,0.6c-0.2,0.2-0.4,0.2-0.6,0.2c-0.2,0-0.4-0.1-0.6-0.2c-0.1-0.1-0.2-0.3-0.2-0.6
						c0-0.2,0.1-0.4,0.2-0.5c0.2-0.2,0.4-0.3,0.6-0.3c0.2,0,0.4,0.1,0.5,0.2C85.5,233.8,85.5,234,85.5,234.2z"/>
					<path id="XMLID_182_" class="st1" d="M89.3,231.8v-1.2h2c-0.7-0.6-1.1-1.2-1.1-1.8c0-0.6,0.3-1.1,0.9-1.6
						c0.5-0.5,1.2-0.9,2-1.2c0.8-0.3,1.5-0.5,2.2-0.5v1.3c-1,0.1-1.8,0.3-2.5,0.7c-0.6,0.3-1,0.7-1.1,1.2c-0.1,0.5,0.1,0.9,0.5,1.2
						c0.5,0.4,1.3,0.6,2.4,0.8h1.8l-0.4,1.2H89.3z"/>
					<path id="XMLID_184_" class="st1" d="M100.3,221.2h-3l0.1-0.9h0.7c-0.1-0.2-0.2-0.3-0.2-0.5c-0.1-0.4,0.1-0.8,0.6-1.2
						c0.2-0.1,0.3-0.2,0.5-0.3c0.4-0.2,0.7-0.3,1.1-0.3l0.1,0.9c-0.2,0-0.5,0.1-0.7,0.2c-0.5,0.2-0.8,0.4-1,0.6
						c0.2,0.4,0.6,0.6,1.1,0.6h0.7V221.2z M98.1,222.7l1.3-0.1v9.2h-1.3V222.7z"/>
				</g>
				<g id="XMLID_106_">
					<path id="XMLID_107_" class="st1" d="M55.5,222.6l1.3-0.1v7.3h-1.1L55.5,222.6z M56.7,230.5c0.1,0.1,0.2,0.3,0.2,0.5
						s-0.1,0.4-0.2,0.5c-0.1,0.1-0.3,0.2-0.5,0.2c-0.2,0-0.4-0.1-0.5-0.2c-0.1-0.1-0.2-0.3-0.2-0.5s0.1-0.4,0.2-0.5
						c0.1-0.1,0.3-0.2,0.5-0.2C56.4,230.3,56.6,230.4,56.7,230.5z"/>
					<path id="XMLID_110_" class="st1" d="M58.9,222.6l1.3-0.1v7.3h-1.1L58.9,222.6z M60.1,230.5c0.1,0.1,0.2,0.3,0.2,0.5
						s-0.1,0.4-0.2,0.5c-0.1,0.1-0.3,0.2-0.5,0.2c-0.2,0-0.4-0.1-0.5-0.2c-0.1-0.1-0.2-0.3-0.2-0.5s0.1-0.4,0.2-0.5
						c0.1-0.1,0.3-0.2,0.5-0.2C59.8,230.3,60,230.4,60.1,230.5z"/>
					<path id="XMLID_113_" class="st1" d="M70.3,229.4c0.8,0.7,1.2,1,1.3,1.1h2.3v1.2h-0.8l0.2,0.2c0.1,0.1,0.2,0.2,0.3,0.3
						c-0.6,0.9-1.4,1.5-2.5,1.8c-1,0.3-2,0.4-3.3,0.3c-1.1-0.1-2.2-0.4-3.3-0.8c-1-0.4-1.9-0.9-2.6-1.5l0.1-1.6
						c0.9,1.1,2.4,1.8,4.5,2.4c2.3,0.5,4.1,0.4,5.4-0.5l-1.9-1.5L70.3,229.4z M67.6,235.8c0.1,0.2,0.2,0.3,0.2,0.6
						c0,0.2-0.1,0.4-0.2,0.6c-0.2,0.2-0.3,0.2-0.6,0.2c-0.2,0-0.4-0.1-0.6-0.2c-0.1-0.2-0.2-0.3-0.2-0.6c0-0.2,0.1-0.4,0.2-0.6
						c0.2-0.2,0.3-0.2,0.6-0.2C67.2,235.6,67.4,235.7,67.6,235.8z M69.3,235.8c0.2,0.2,0.2,0.3,0.2,0.6c0,0.2-0.1,0.4-0.2,0.6
						c-0.2,0.2-0.3,0.2-0.6,0.2c-0.2,0-0.4-0.1-0.6-0.2c-0.1-0.2-0.2-0.3-0.2-0.6c0-0.2,0.1-0.4,0.2-0.6c0.2-0.2,0.3-0.2,0.6-0.2
						C68.9,235.6,69.1,235.7,69.3,235.8z"/>
					<path id="XMLID_117_" class="st1" d="M73.6,231.8v-1.2h1.8v-5l1.3-0.1v5.1h0.8v1.2H73.6z M76.6,223.2c0.2,0.1,0.2,0.3,0.2,0.6
						c0,0.2-0.1,0.4-0.2,0.6c-0.2,0.2-0.3,0.2-0.6,0.2c-0.2,0-0.4-0.1-0.6-0.2c-0.1-0.2-0.2-0.3-0.2-0.6c0-0.2,0.1-0.4,0.2-0.6
						c0.1-0.2,0.3-0.2,0.6-0.2C76.2,223,76.4,223.1,76.6,223.2z"/>
					<path id="XMLID_120_" class="st1" d="M77.3,231.8v-1.2h1.8v-5l1.3-0.1v5.1h0.8v1.2H77.3z M80.6,234.2c0,0.2-0.1,0.4-0.2,0.6
						c-0.2,0.2-0.4,0.2-0.5,0.2c-0.2,0-0.4-0.1-0.6-0.2c-0.1-0.2-0.2-0.3-0.2-0.6c0-0.2,0.1-0.4,0.2-0.5c0.2-0.2,0.4-0.3,0.6-0.3
						c0.2,0,0.4,0.1,0.5,0.2C80.5,233.8,80.6,234,80.6,234.2z"/>
					<path id="XMLID_123_" class="st1" d="M81,230.5h5c-1.6-1.1-3-2.6-4.2-4.4l1-0.9c1.5,2.4,3.4,4.1,5.8,5.3h0.9v1.2H81V230.5z
						 M85.5,234.2c0,0.2-0.1,0.4-0.2,0.6c-0.2,0.2-0.4,0.2-0.6,0.2c-0.2,0-0.4-0.1-0.6-0.2c-0.1-0.1-0.2-0.3-0.2-0.6
						c0-0.2,0.1-0.4,0.2-0.5c0.2-0.2,0.4-0.3,0.6-0.3c0.2,0,0.4,0.1,0.5,0.2C85.5,233.8,85.5,234,85.5,234.2z"/>
					<path id="XMLID_126_" class="st1" d="M89.3,231.8v-1.2h2c-0.7-0.6-1.1-1.2-1.1-1.8c0-0.6,0.3-1.1,0.9-1.6
						c0.5-0.5,1.2-0.9,2-1.2c0.8-0.3,1.5-0.5,2.2-0.5v1.3c-1,0.1-1.8,0.3-2.5,0.7c-0.6,0.3-1,0.7-1.1,1.2c-0.1,0.5,0.1,0.9,0.5,1.2
						c0.5,0.4,1.3,0.6,2.4,0.8h1.8l-0.4,1.2H89.3z"/>
					<path id="XMLID_128_" class="st1" d="M100.3,221.2h-3l0.1-0.9h0.7c-0.1-0.2-0.2-0.3-0.2-0.5c-0.1-0.4,0.1-0.8,0.6-1.2
						c0.2-0.1,0.3-0.2,0.5-0.3c0.4-0.2,0.7-0.3,1.1-0.3l0.1,0.9c-0.2,0-0.5,0.1-0.7,0.2c-0.5,0.2-0.8,0.4-1,0.6
						c0.2,0.4,0.6,0.6,1.1,0.6h0.7V221.2z M98.1,222.7l1.3-0.1v9.2h-1.3V222.7z"/>
				</g>
				<g id="XMLID_628_">
					<path id="XMLID_41_" class="st1" d="M55.5,222.6l1.3-0.1v7.3h-1.1L55.5,222.6z M56.7,230.5c0.1,0.1,0.2,0.3,0.2,0.5
						s-0.1,0.4-0.2,0.5c-0.1,0.1-0.3,0.2-0.5,0.2c-0.2,0-0.4-0.1-0.5-0.2c-0.1-0.1-0.2-0.3-0.2-0.5s0.1-0.4,0.2-0.5
						c0.1-0.1,0.3-0.2,0.5-0.2C56.4,230.3,56.6,230.4,56.7,230.5z"/>
					<path id="XMLID_44_" class="st1" d="M58.9,222.6l1.3-0.1v7.3h-1.1L58.9,222.6z M60.1,230.5c0.1,0.1,0.2,0.3,0.2,0.5
						s-0.1,0.4-0.2,0.5c-0.1,0.1-0.3,0.2-0.5,0.2c-0.2,0-0.4-0.1-0.5-0.2c-0.1-0.1-0.2-0.3-0.2-0.5s0.1-0.4,0.2-0.5
						c0.1-0.1,0.3-0.2,0.5-0.2C59.8,230.3,60,230.4,60.1,230.5z"/>
					<path id="XMLID_47_" class="st1" d="M70.3,229.4c0.8,0.7,1.2,1,1.3,1.1h2.3v1.2h-0.8l0.2,0.2c0.1,0.1,0.2,0.2,0.3,0.3
						c-0.6,0.9-1.4,1.5-2.5,1.8c-1,0.3-2,0.4-3.3,0.3c-1.1-0.1-2.2-0.4-3.3-0.8c-1-0.4-1.9-0.9-2.6-1.5l0.1-1.6
						c0.9,1.1,2.4,1.8,4.5,2.4c2.3,0.5,4.1,0.4,5.4-0.5l-1.9-1.5L70.3,229.4z M67.6,235.8c0.1,0.2,0.2,0.3,0.2,0.6
						c0,0.2-0.1,0.4-0.2,0.6c-0.2,0.2-0.3,0.2-0.6,0.2c-0.2,0-0.4-0.1-0.6-0.2c-0.1-0.2-0.2-0.3-0.2-0.6c0-0.2,0.1-0.4,0.2-0.6
						c0.2-0.2,0.3-0.2,0.6-0.2C67.2,235.6,67.4,235.7,67.6,235.8z M69.3,235.8c0.2,0.2,0.2,0.3,0.2,0.6c0,0.2-0.1,0.4-0.2,0.6
						c-0.2,0.2-0.3,0.2-0.6,0.2c-0.2,0-0.4-0.1-0.6-0.2c-0.1-0.2-0.2-0.3-0.2-0.6c0-0.2,0.1-0.4,0.2-0.6c0.2-0.2,0.3-0.2,0.6-0.2
						C68.9,235.6,69.1,235.7,69.3,235.8z"/>
					<path id="XMLID_51_" class="st1" d="M73.6,231.8v-1.2h1.8v-5l1.3-0.1v5.1h0.8v1.2H73.6z M76.6,223.2c0.2,0.1,0.2,0.3,0.2,0.6
						c0,0.2-0.1,0.4-0.2,0.6c-0.2,0.2-0.3,0.2-0.6,0.2c-0.2,0-0.4-0.1-0.6-0.2c-0.1-0.2-0.2-0.3-0.2-0.6c0-0.2,0.1-0.4,0.2-0.6
						c0.1-0.2,0.3-0.2,0.6-0.2C76.2,223,76.4,223.1,76.6,223.2z"/>
					<path id="XMLID_54_" class="st1" d="M77.3,231.8v-1.2h1.8v-5l1.3-0.1v5.1h0.8v1.2H77.3z M80.6,234.2c0,0.2-0.1,0.4-0.2,0.6
						c-0.2,0.2-0.4,0.2-0.5,0.2c-0.2,0-0.4-0.1-0.6-0.2c-0.1-0.2-0.2-0.3-0.2-0.6c0-0.2,0.1-0.4,0.2-0.5c0.2-0.2,0.4-0.3,0.6-0.3
						c0.2,0,0.4,0.1,0.5,0.2C80.5,233.8,80.6,234,80.6,234.2z"/>
					<path id="XMLID_57_" class="st1" d="M81,230.5h5c-1.6-1.1-3-2.6-4.2-4.4l1-0.9c1.5,2.4,3.4,4.1,5.8,5.3h0.9v1.2H81V230.5z
						 M85.5,234.2c0,0.2-0.1,0.4-0.2,0.6c-0.2,0.2-0.4,0.2-0.6,0.2c-0.2,0-0.4-0.1-0.6-0.2c-0.1-0.1-0.2-0.3-0.2-0.6
						c0-0.2,0.1-0.4,0.2-0.5c0.2-0.2,0.4-0.3,0.6-0.3c0.2,0,0.4,0.1,0.5,0.2C85.5,233.8,85.5,234,85.5,234.2z"/>
					<path id="XMLID_60_" class="st1" d="M89.3,231.8v-1.2h2c-0.7-0.6-1.1-1.2-1.1-1.8c0-0.6,0.3-1.1,0.9-1.6c0.5-0.5,1.2-0.9,2-1.2
						c0.8-0.3,1.5-0.5,2.2-0.5v1.3c-1,0.1-1.8,0.3-2.5,0.7c-0.6,0.3-1,0.7-1.1,1.2c-0.1,0.5,0.1,0.9,0.5,1.2
						c0.5,0.4,1.3,0.6,2.4,0.8h1.8l-0.4,1.2H89.3z"/>
					<path id="XMLID_62_" class="st1" d="M100.3,221.2h-3l0.1-0.9h0.7c-0.1-0.2-0.2-0.3-0.2-0.5c-0.1-0.4,0.1-0.8,0.6-1.2
						c0.2-0.1,0.3-0.2,0.5-0.3c0.4-0.2,0.7-0.3,1.1-0.3l0.1,0.9c-0.2,0-0.5,0.1-0.7,0.2c-0.5,0.2-0.8,0.4-1,0.6
						c0.2,0.4,0.6,0.6,1.1,0.6h0.7V221.2z M98.1,222.7l1.3-0.1v9.2h-1.3V222.7z"/>
				</g>
			</g>
		</g>
		<g id="XMLID_605_">
			<g id="XMLID_716_">
				<g id="XMLID_743_">
					<rect id="XMLID_744_" x="198.2" y="73.8" class="st1" width="47" height="48"/>
				</g>
				<g id="XMLID_718_">
					<g id="XMLID_737_">
						<g id="XMLID_738_">
							<defs>
								<rect id="XMLID_739_" x="199.2" y="62.8" width="9" height="8"/>
							</defs>
							<clipPath id="XMLID_187_">
								<use xlink:href="#XMLID_739_"  style="overflow:visible;"/>
							</clipPath>
							<path id="XMLID_740_" style="clip-path:url(#XMLID_187_);fill:#6C0C22;" d="M207.9,66.3c0.1-0.1,0.1-0.2,0.1-0.3
								c0-0.1-0.1-0.2-0.3-0.2l-2.5-0.2c-0.1,0-0.2-0.1-0.3-0.2l-1-2.3c-0.1-0.1-0.2-0.2-0.3-0.2c-0.1,0-0.2,0.1-0.3,0.2l-1,2.3
								c0,0.1-0.1,0.2-0.3,0.2l-2.5,0.2c-0.1,0-0.2,0.1-0.3,0.2c0,0.1,0,0.3,0.1,0.3l1.9,1.6c0.1,0.1,0.1,0.2,0.1,0.3l-0.6,2.5
								c0,0.1,0,0.3,0.1,0.3c0.1,0.1,0.2,0.1,0.3,0l2.2-1.3c0.1-0.1,0.2-0.1,0.3,0l2.2,1.3c0.1,0.1,0.2,0.1,0.3,0
								c0.1-0.1,0.1-0.2,0.1-0.3l-0.6-2.5c0-0.1,0-0.2,0.1-0.3L207.9,66.3z M207.9,66.3"/>
						</g>
					</g>
					<g id="XMLID_731_">
						<g id="XMLID_732_">
							<defs>
								<rect id="XMLID_733_" x="211.2" y="62.8" width="9" height="8"/>
							</defs>
							<clipPath id="XMLID_188_">
								<use xlink:href="#XMLID_733_"  style="overflow:visible;"/>
							</clipPath>
							<path id="XMLID_734_" style="clip-path:url(#XMLID_188_);fill:#6C0C22;" d="M219.9,66.3c0.1-0.1,0.1-0.2,0.1-0.3
								c0-0.1-0.1-0.2-0.3-0.2l-2.5-0.2c-0.1,0-0.2-0.1-0.3-0.2l-1-2.3c-0.1-0.1-0.2-0.2-0.3-0.2c-0.1,0-0.2,0.1-0.3,0.2l-1,2.3
								c0,0.1-0.1,0.2-0.3,0.2l-2.5,0.2c-0.1,0-0.2,0.1-0.3,0.2c0,0.1,0,0.3,0.1,0.3l1.9,1.6c0.1,0.1,0.1,0.2,0.1,0.3l-0.6,2.5
								c0,0.1,0,0.3,0.1,0.3c0.1,0.1,0.2,0.1,0.3,0l2.2-1.3c0.1-0.1,0.2-0.1,0.3,0l2.2,1.3c0.1,0.1,0.2,0.1,0.3,0
								c0.1-0.1,0.1-0.2,0.1-0.3l-0.6-2.5c0-0.1,0-0.2,0.1-0.3L219.9,66.3z M219.9,66.3"/>
						</g>
					</g>
					<g id="XMLID_725_">
						<g id="XMLID_726_">
							<defs>
								<rect id="XMLID_727_" x="223.2" y="62.8" width="9" height="8"/>
							</defs>
							<clipPath id="XMLID_189_">
								<use xlink:href="#XMLID_727_"  style="overflow:visible;"/>
							</clipPath>
							<path id="XMLID_728_" style="clip-path:url(#XMLID_189_);fill:#6C0C22;" d="M231.8,66.3c0.1-0.1,0.1-0.2,0.1-0.3
								c0-0.1-0.1-0.2-0.3-0.2l-2.5-0.2c-0.1,0-0.2-0.1-0.3-0.2l-1-2.3c-0.1-0.1-0.2-0.2-0.3-0.2c-0.1,0-0.2,0.1-0.3,0.2l-1,2.3
								c0,0.1-0.1,0.2-0.3,0.2l-2.5,0.2c-0.1,0-0.2,0.1-0.3,0.2c0,0.1,0,0.3,0.1,0.3l1.9,1.6c0.1,0.1,0.1,0.2,0.1,0.3l-0.6,2.5
								c0,0.1,0,0.3,0.1,0.3c0.1,0.1,0.2,0.1,0.3,0l2.2-1.3c0.1-0.1,0.2-0.1,0.3,0l2.2,1.3c0.1,0.1,0.2,0.1,0.3,0
								c0.1-0.1,0.1-0.2,0.1-0.3l-0.6-2.5c0-0.1,0-0.2,0.1-0.3L231.8,66.3z M231.8,66.3"/>
						</g>
					</g>
					<g id="XMLID_719_">
						<g id="XMLID_720_">
							<defs>
								<rect id="XMLID_721_" x="235.2" y="62.8" width="9" height="8"/>
							</defs>
							<clipPath id="XMLID_190_">
								<use xlink:href="#XMLID_721_"  style="overflow:visible;"/>
							</clipPath>
							<path id="XMLID_722_" style="clip-path:url(#XMLID_190_);fill:#6C0C22;" d="M243.7,66.3c0.1-0.1,0.1-0.2,0.1-0.3
								c0-0.1-0.1-0.2-0.3-0.2l-2.5-0.2c-0.1,0-0.2-0.1-0.3-0.2l-1-2.3c-0.1-0.1-0.2-0.2-0.3-0.2c-0.1,0-0.2,0.1-0.3,0.2l-1,2.3
								c0,0.1-0.1,0.2-0.3,0.2l-2.5,0.2c-0.1,0-0.2,0.1-0.3,0.2c0,0.1,0,0.3,0.1,0.3l1.9,1.6c0.1,0.1,0.1,0.2,0.1,0.3l-0.6,2.5
								c0,0.1,0,0.3,0.1,0.3c0.1,0.1,0.2,0.1,0.3,0l2.2-1.3c0.1-0.1,0.2-0.1,0.3,0l2.2,1.3c0.1,0.1,0.2,0.1,0.3,0
								c0.1-0.1,0.1-0.2,0.1-0.3l-0.6-2.5c0-0.1,0-0.2,0.1-0.3L243.7,66.3z M243.7,66.3"/>
						</g>
					</g>
				</g>
				<text id="XMLID_717_" transform="matrix(1 0 0 1 221.8009 104.8381)" class="st0 st6 st7">3</text>
			</g>
			<g id="XMLID_606_">
				<g id="XMLID_774_">
					<g id="XMLID_973_">
						<rect id="XMLID_974_" x="57.2" y="73.8" class="st1" width="48" height="48"/>
					</g>
					<g id="XMLID_776_">
						<g id="XMLID_967_">
							<g id="XMLID_968_">
								<defs>
									<rect id="XMLID_969_" x="58.2" y="62.8" width="9" height="8"/>
								</defs>
								<clipPath id="XMLID_191_">
									<use xlink:href="#XMLID_969_"  style="overflow:visible;"/>
								</clipPath>
								<path id="XMLID_970_" style="clip-path:url(#XMLID_191_);fill:#F7F7F7;" d="M67.2,66.3c0.1-0.1,0.1-0.2,0.1-0.3
									c0-0.1-0.1-0.2-0.3-0.2l-2.5-0.2c-0.1,0-0.2-0.1-0.3-0.2l-1-2.3c-0.1-0.1-0.2-0.2-0.3-0.2c-0.1,0-0.2,0.1-0.3,0.2l-1,2.3
									c0,0.1-0.1,0.2-0.3,0.2l-2.5,0.2c-0.1,0-0.2,0.1-0.3,0.2c0,0.1,0,0.3,0.1,0.3l1.9,1.6c0.1,0.1,0.1,0.2,0.1,0.3l-0.6,2.5
									c0,0.1,0,0.3,0.1,0.3c0.1,0.1,0.2,0.1,0.3,0l2.2-1.3c0.1-0.1,0.2-0.1,0.3,0l2.2,1.3c0.1,0.1,0.2,0.1,0.3,0
									c0.1-0.1,0.1-0.2,0.1-0.3l-0.6-2.5c0-0.1,0-0.2,0.1-0.3L67.2,66.3z M67.2,66.3"/>
							</g>
						</g>
						<g id="XMLID_961_">
							<g id="XMLID_962_">
								<defs>
									<rect id="XMLID_963_" x="70.2" y="62.8" width="9" height="8"/>
								</defs>
								<clipPath id="XMLID_192_">
									<use xlink:href="#XMLID_963_"  style="overflow:visible;"/>
								</clipPath>
								<path id="XMLID_964_" style="clip-path:url(#XMLID_192_);fill:#F7F7F7;" d="M79.2,66.3c0.1-0.1,0.1-0.2,0.1-0.3
									c0-0.1-0.1-0.2-0.3-0.2l-2.5-0.2c-0.1,0-0.2-0.1-0.3-0.2l-1-2.3c-0.1-0.1-0.2-0.2-0.3-0.2c-0.1,0-0.2,0.1-0.3,0.2l-1,2.3
									c0,0.1-0.1,0.2-0.3,0.2l-2.5,0.2c-0.1,0-0.2,0.1-0.3,0.2c0,0.1,0,0.3,0.1,0.3l1.9,1.6c0.1,0.1,0.1,0.2,0.1,0.3l-0.6,2.5
									c0,0.1,0,0.3,0.1,0.3c0.1,0.1,0.2,0.1,0.3,0l2.2-1.3c0.1-0.1,0.2-0.1,0.3,0l2.2,1.3c0.1,0.1,0.2,0.1,0.3,0
									c0.1-0.1,0.1-0.2,0.1-0.3l-0.6-2.5c0-0.1,0-0.2,0.1-0.3L79.2,66.3z M79.2,66.3"/>
							</g>
						</g>
						<g id="XMLID_955_">
							<g id="XMLID_956_">
								<defs>
									<rect id="XMLID_957_" x="82.2" y="62.8" width="9" height="8"/>
								</defs>
								<clipPath id="XMLID_193_">
									<use xlink:href="#XMLID_957_"  style="overflow:visible;"/>
								</clipPath>
								<path id="XMLID_958_" style="clip-path:url(#XMLID_193_);fill:#F7F7F7;" d="M91.1,66.3c0.1-0.1,0.1-0.2,0.1-0.3
									c0-0.1-0.1-0.2-0.3-0.2l-2.5-0.2c-0.1,0-0.2-0.1-0.3-0.2l-1-2.3c-0.1-0.1-0.2-0.2-0.3-0.2c-0.1,0-0.2,0.1-0.3,0.2l-1,2.3
									c0,0.1-0.1,0.2-0.3,0.2l-2.5,0.2c-0.1,0-0.2,0.1-0.3,0.2c0,0.1,0,0.3,0.1,0.3l1.9,1.6c0.1,0.1,0.1,0.2,0.1,0.3l-0.6,2.5
									c0,0.1,0,0.3,0.1,0.3c0.1,0.1,0.2,0.1,0.3,0l2.2-1.3c0.1-0.1,0.2-0.1,0.3,0l2.2,1.3c0.1,0.1,0.2,0.1,0.3,0
									c0.1-0.1,0.1-0.2,0.1-0.3l-0.6-2.5c0-0.1,0-0.2,0.1-0.3L91.1,66.3z M91.1,66.3"/>
							</g>
						</g>
						<g id="XMLID_777_">
							<g id="XMLID_778_">
								<defs>
									<rect id="XMLID_779_" x="94.2" y="62.8" width="9" height="8"/>
								</defs>
								<clipPath id="XMLID_194_">
									<use xlink:href="#XMLID_779_"  style="overflow:visible;"/>
								</clipPath>
								<path id="XMLID_780_" style="clip-path:url(#XMLID_194_);fill:#6C0C22;" d="M103,66.3c0.1-0.1,0.1-0.2,0.1-0.3
									c0-0.1-0.1-0.2-0.3-0.2l-2.5-0.2c-0.1,0-0.2-0.1-0.3-0.2L99,63c-0.1-0.1-0.2-0.2-0.3-0.2c-0.1,0-0.2,0.1-0.3,0.2l-1,2.3
									c0,0.1-0.1,0.2-0.3,0.2l-2.5,0.2c-0.1,0-0.2,0.1-0.3,0.2c0,0.1,0,0.3,0.1,0.3l1.9,1.6c0.1,0.1,0.1,0.2,0.1,0.3L96,70.8
									c0,0.1,0,0.3,0.1,0.3c0.1,0.1,0.2,0.1,0.3,0l2.2-1.3c0.1-0.1,0.2-0.1,0.3,0l2.2,1.3c0.1,0.1,0.2,0.1,0.3,0
									c0.1-0.1,0.1-0.2,0.1-0.3l-0.6-2.5c0-0.1,0-0.2,0.1-0.3L103,66.3z M103,66.3"/>
							</g>
						</g>
					</g>
					<text id="XMLID_775_" transform="matrix(1 0 0 1 81.0934 103.9338)" class="st0 st6 st7">1</text>
				</g>
				<g id="XMLID_195_">
					<path id="XMLID_196_" class="st1" d="M75.4,126.5v8h0.8v1.2h-0.8v1.6l-1.1,1.1h-4.7c-1,0-1.7-0.4-2.1-1.3
						c-0.2-0.4-0.2-0.8-0.2-1.3v-2.6l1.3-0.1v2.8c0,0.5,0.2,0.9,0.6,1.1c0.2,0.1,0.4,0.1,0.6,0.2h4.5v-10.6L75.4,126.5z"/>
					<path id="XMLID_198_" class="st1" d="M76,135.7v-1.2h1.8v-5l1.3-0.1v5.1h0.8v1.2H76z M77.9,138.1c0,0.2-0.1,0.4-0.2,0.6
						c-0.1,0.2-0.3,0.2-0.6,0.2c-0.2,0-0.4-0.1-0.6-0.2c-0.2-0.2-0.2-0.3-0.2-0.6s0.1-0.4,0.2-0.6c0.2-0.2,0.3-0.2,0.6-0.2
						c0.2,0,0.4,0.1,0.5,0.2C77.8,137.7,77.9,137.9,77.9,138.1z M79.7,138.1c0,0.2-0.1,0.4-0.2,0.6c-0.2,0.2-0.4,0.2-0.6,0.2
						c-0.2,0-0.4-0.1-0.6-0.2c-0.1-0.1-0.2-0.3-0.2-0.6c0-0.2,0.1-0.4,0.2-0.5c0.2-0.2,0.3-0.2,0.6-0.2c0.2,0,0.4,0.1,0.5,0.2
						C79.6,137.7,79.7,137.9,79.7,138.1z"/>
					<path id="XMLID_202_" class="st1" d="M88.5,134.5v1.2h-2.4l-4.5-0.8c-0.1,0.2-0.2,0.4-0.5,0.5c-0.2,0.2-0.5,0.2-0.7,0.2h-0.8
						v-1.2h0.8c0.3,0,0.5-0.3,0.7-0.8c0.1-0.2,0.1-0.4,0.3-0.8c0.1-0.4,0.2-0.7,0.3-0.9c0.3-1,0.6-1.6,0.9-2c0.5-0.6,1.1-0.9,2-0.9
						c0.8,0,1.5,0.4,2.1,1.2c0.5,0.8,0.8,1.7,0.8,2.8c0,0.5,0,0.9-0.1,1.3H88.5z M86.3,134.5c0.2-0.8,0.2-1.6-0.1-2.4
						c-0.2-0.7-0.6-1.3-1.1-1.6c-0.5-0.3-1-0.2-1.5,0.2c-0.6,0.5-1,1.5-1.3,2.9L86.3,134.5z"/>
					<path id="XMLID_205_" class="st1" d="M88.2,134.5h5c-1.6-1.2-3-2.7-4.2-4.4l1-0.9c1.5,2.3,3.4,4.1,5.8,5.3h1.3l-0.4,1.2h-8.5
						V134.5z M92.8,138.1c0,0.2-0.1,0.4-0.2,0.6c-0.2,0.2-0.4,0.2-0.6,0.2c-0.2,0-0.4-0.1-0.6-0.2c-0.1-0.1-0.2-0.3-0.2-0.6
						c0-0.2,0.1-0.4,0.2-0.5c0.2-0.2,0.4-0.2,0.6-0.2c0.2,0,0.4,0.1,0.5,0.2C92.7,137.7,92.8,137.9,92.8,138.1z"/>
				</g>
				<g id="XMLID_139_">
					<path id="XMLID_140_" class="st1" d="M75.4,126.5v8h0.8v1.2h-0.8v1.6l-1.1,1.1h-4.7c-1,0-1.7-0.4-2.1-1.3
						c-0.2-0.4-0.2-0.8-0.2-1.3v-2.6l1.3-0.1v2.8c0,0.5,0.2,0.9,0.6,1.1c0.2,0.1,0.4,0.1,0.6,0.2h4.5v-10.6L75.4,126.5z"/>
					<path id="XMLID_142_" class="st1" d="M76,135.7v-1.2h1.8v-5l1.3-0.1v5.1h0.8v1.2H76z M77.9,138.1c0,0.2-0.1,0.4-0.2,0.6
						c-0.1,0.2-0.3,0.2-0.6,0.2c-0.2,0-0.4-0.1-0.6-0.2c-0.2-0.2-0.2-0.3-0.2-0.6s0.1-0.4,0.2-0.6c0.2-0.2,0.3-0.2,0.6-0.2
						c0.2,0,0.4,0.1,0.5,0.2C77.8,137.7,77.9,137.9,77.9,138.1z M79.7,138.1c0,0.2-0.1,0.4-0.2,0.6c-0.2,0.2-0.4,0.2-0.6,0.2
						c-0.2,0-0.4-0.1-0.6-0.2c-0.1-0.1-0.2-0.3-0.2-0.6c0-0.2,0.1-0.4,0.2-0.5c0.2-0.2,0.3-0.2,0.6-0.2c0.2,0,0.4,0.1,0.5,0.2
						C79.6,137.7,79.7,137.9,79.7,138.1z"/>
					<path id="XMLID_146_" class="st1" d="M88.5,134.5v1.2h-2.4l-4.5-0.8c-0.1,0.2-0.2,0.4-0.5,0.5c-0.2,0.2-0.5,0.2-0.7,0.2h-0.8
						v-1.2h0.8c0.3,0,0.5-0.3,0.7-0.8c0.1-0.2,0.1-0.4,0.3-0.8c0.1-0.4,0.2-0.7,0.3-0.9c0.3-1,0.6-1.6,0.9-2c0.5-0.6,1.1-0.9,2-0.9
						c0.8,0,1.5,0.4,2.1,1.2c0.5,0.8,0.8,1.7,0.8,2.8c0,0.5,0,0.9-0.1,1.3H88.5z M86.3,134.5c0.2-0.8,0.2-1.6-0.1-2.4
						c-0.2-0.7-0.6-1.3-1.1-1.6c-0.5-0.3-1-0.2-1.5,0.2c-0.6,0.5-1,1.5-1.3,2.9L86.3,134.5z"/>
					<path id="XMLID_149_" class="st1" d="M88.2,134.5h5c-1.6-1.2-3-2.7-4.2-4.4l1-0.9c1.5,2.3,3.4,4.1,5.8,5.3h1.3l-0.4,1.2h-8.5
						V134.5z M92.8,138.1c0,0.2-0.1,0.4-0.2,0.6c-0.2,0.2-0.4,0.2-0.6,0.2c-0.2,0-0.4-0.1-0.6-0.2c-0.1-0.1-0.2-0.3-0.2-0.6
						c0-0.2,0.1-0.4,0.2-0.5c0.2-0.2,0.4-0.2,0.6-0.2c0.2,0,0.4,0.1,0.5,0.2C92.7,137.7,92.8,137.9,92.8,138.1z"/>
				</g>
				<g id="XMLID_627_">
					<path id="XMLID_65_" class="st1" d="M75.4,126.5v8h0.8v1.2h-0.8v1.6l-1.1,1.1h-4.7c-1,0-1.7-0.4-2.1-1.3
						c-0.2-0.4-0.2-0.8-0.2-1.3v-2.6l1.3-0.1v2.8c0,0.5,0.2,0.9,0.6,1.1c0.2,0.1,0.4,0.1,0.6,0.2h4.5v-10.6L75.4,126.5z"/>
					<path id="XMLID_67_" class="st1" d="M76,135.7v-1.2h1.8v-5l1.3-0.1v5.1h0.8v1.2H76z M77.9,138.1c0,0.2-0.1,0.4-0.2,0.6
						c-0.1,0.2-0.3,0.2-0.6,0.2c-0.2,0-0.4-0.1-0.6-0.2c-0.2-0.2-0.2-0.3-0.2-0.6s0.1-0.4,0.2-0.6c0.2-0.2,0.3-0.2,0.6-0.2
						c0.2,0,0.4,0.1,0.5,0.2C77.8,137.7,77.9,137.9,77.9,138.1z M79.7,138.1c0,0.2-0.1,0.4-0.2,0.6c-0.2,0.2-0.4,0.2-0.6,0.2
						c-0.2,0-0.4-0.1-0.6-0.2c-0.1-0.1-0.2-0.3-0.2-0.6c0-0.2,0.1-0.4,0.2-0.5c0.2-0.2,0.3-0.2,0.6-0.2c0.2,0,0.4,0.1,0.5,0.2
						C79.6,137.7,79.7,137.9,79.7,138.1z"/>
					<path id="XMLID_71_" class="st1" d="M88.5,134.5v1.2h-2.4l-4.5-0.8c-0.1,0.2-0.2,0.4-0.5,0.5c-0.2,0.2-0.5,0.2-0.7,0.2h-0.8
						v-1.2h0.8c0.3,0,0.5-0.3,0.7-0.8c0.1-0.2,0.1-0.4,0.3-0.8c0.1-0.4,0.2-0.7,0.3-0.9c0.3-1,0.6-1.6,0.9-2c0.5-0.6,1.1-0.9,2-0.9
						c0.8,0,1.5,0.4,2.1,1.2c0.5,0.8,0.8,1.7,0.8,2.8c0,0.5,0,0.9-0.1,1.3H88.5z M86.3,134.5c0.2-0.8,0.2-1.6-0.1-2.4
						c-0.2-0.7-0.6-1.3-1.1-1.6c-0.5-0.3-1-0.2-1.5,0.2c-0.6,0.5-1,1.5-1.3,2.9L86.3,134.5z"/>
					<path id="XMLID_74_" class="st1" d="M88.2,134.5h5c-1.6-1.2-3-2.7-4.2-4.4l1-0.9c1.5,2.3,3.4,4.1,5.8,5.3h1.3l-0.4,1.2h-8.5
						V134.5z M92.8,138.1c0,0.2-0.1,0.4-0.2,0.6c-0.2,0.2-0.4,0.2-0.6,0.2c-0.2,0-0.4-0.1-0.6-0.2c-0.1-0.1-0.2-0.3-0.2-0.6
						c0-0.2,0.1-0.4,0.2-0.5c0.2-0.2,0.4-0.2,0.6-0.2c0.2,0,0.4,0.1,0.5,0.2C92.7,137.7,92.8,137.9,92.8,138.1z"/>
				</g>
			</g>
			<g id="XMLID_607_">
				<g id="XMLID_745_">
					<g id="XMLID_772_">
						<rect id="XMLID_773_" x="127.2" y="73.8" class="st1" width="48" height="48"/>
					</g>
					<g id="XMLID_747_">
						<g id="XMLID_766_">
							<g id="XMLID_767_">
								<defs>
									<rect id="XMLID_768_" x="129.2" y="62.8" width="9" height="8"/>
								</defs>
								<clipPath id="XMLID_208_">
									<use xlink:href="#XMLID_768_"  style="overflow:visible;"/>
								</clipPath>
								<path id="XMLID_769_" style="clip-path:url(#XMLID_208_);fill:#F7F7F7;" d="M137.6,66.3c0.1-0.1,0.1-0.2,0.1-0.3
									c0-0.1-0.1-0.2-0.3-0.2l-2.5-0.2c-0.1,0-0.2-0.1-0.3-0.2l-1-2.3c-0.1-0.1-0.2-0.2-0.3-0.2c-0.1,0-0.2,0.1-0.3,0.2l-1,2.3
									c0,0.1-0.1,0.2-0.3,0.2l-2.5,0.2c-0.1,0-0.2,0.1-0.3,0.2c0,0.1,0,0.3,0.1,0.3L131,68c0.1,0.1,0.1,0.2,0.1,0.3l-0.6,2.5
									c0,0.1,0,0.3,0.1,0.3c0.1,0.1,0.2,0.1,0.3,0l2.2-1.3c0.1-0.1,0.2-0.1,0.3,0l2.2,1.3c0.1,0.1,0.2,0.1,0.3,0
									c0.1-0.1,0.1-0.2,0.1-0.3l-0.6-2.5c0-0.1,0-0.2,0.1-0.3L137.6,66.3z M137.6,66.3"/>
							</g>
						</g>
						<g id="XMLID_760_">
							<g id="XMLID_761_">
								<defs>
									<rect id="XMLID_762_" x="141.2" y="62.8" width="8" height="8"/>
								</defs>
								<clipPath id="XMLID_209_">
									<use xlink:href="#XMLID_762_"  style="overflow:visible;"/>
								</clipPath>
								<path id="XMLID_763_" style="clip-path:url(#XMLID_209_);fill:#F7F7F7;" d="M149.5,66.3c0.1-0.1,0.1-0.2,0.1-0.3
									c0-0.1-0.1-0.2-0.3-0.2l-2.5-0.2c-0.1,0-0.2-0.1-0.3-0.2l-1-2.3c-0.1-0.1-0.2-0.2-0.3-0.2c-0.1,0-0.2,0.1-0.3,0.2l-1,2.3
									c0,0.1-0.1,0.2-0.3,0.2l-2.5,0.2c-0.1,0-0.2,0.1-0.3,0.2c0,0.1,0,0.3,0.1,0.3L143,68c0.1,0.1,0.1,0.2,0.1,0.3l-0.6,2.5
									c0,0.1,0,0.3,0.1,0.3c0.1,0.1,0.2,0.1,0.3,0l2.2-1.3c0.1-0.1,0.2-0.1,0.3,0l2.2,1.3c0.1,0.1,0.2,0.1,0.3,0
									c0.1-0.1,0.1-0.2,0.1-0.3l-0.6-2.5c0-0.1,0-0.2,0.1-0.3L149.5,66.3z M149.5,66.3"/>
							</g>
						</g>
						<g id="XMLID_754_">
							<g id="XMLID_755_">
								<defs>
									<rect id="XMLID_756_" x="153.2" y="62.8" width="8" height="8"/>
								</defs>
								<clipPath id="XMLID_210_">
									<use xlink:href="#XMLID_756_"  style="overflow:visible;"/>
								</clipPath>
								<path id="XMLID_757_" style="clip-path:url(#XMLID_210_);fill:#F7F7F7;" d="M161.4,66.3c0.1-0.1,0.1-0.2,0.1-0.3
									c0-0.1-0.1-0.2-0.3-0.2l-2.5-0.2c-0.1,0-0.2-0.1-0.3-0.2l-1-2.3c-0.1-0.1-0.2-0.2-0.3-0.2c-0.1,0-0.2,0.1-0.3,0.2l-1,2.3
									c0,0.1-0.1,0.2-0.3,0.2l-2.5,0.2c-0.1,0-0.2,0.1-0.3,0.2c0,0.1,0,0.3,0.1,0.3l1.9,1.6c0.1,0.1,0.1,0.2,0.1,0.3l-0.6,2.5
									c0,0.1,0,0.3,0.1,0.3c0.1,0.1,0.2,0.1,0.3,0l2.2-1.3c0.1-0.1,0.2-0.1,0.3,0l2.2,1.3c0.1,0.1,0.2,0.1,0.3,0
									c0.1-0.1,0.1-0.2,0.1-0.3l-0.6-2.5c0-0.1,0-0.2,0.1-0.3L161.4,66.3z M161.4,66.3"/>
							</g>
						</g>
						<g id="XMLID_748_">
							<g id="XMLID_749_">
								<defs>
									<rect id="XMLID_750_" x="165.2" y="62.8" width="8" height="8"/>
								</defs>
								<clipPath id="XMLID_211_">
									<use xlink:href="#XMLID_750_"  style="overflow:visible;"/>
								</clipPath>
								<path id="XMLID_751_" style="clip-path:url(#XMLID_211_);fill:#F7F7F7;" d="M173.4,66.3c0.1-0.1,0.1-0.2,0.1-0.3
									c0-0.1-0.1-0.2-0.3-0.2l-2.5-0.2c-0.1,0-0.2-0.1-0.3-0.2l-1-2.3c-0.1-0.1-0.2-0.2-0.3-0.2c-0.1,0-0.2,0.1-0.3,0.2l-1,2.3
									c0,0.1-0.1,0.2-0.3,0.2l-2.5,0.2c-0.1,0-0.2,0.1-0.3,0.2c0,0.1,0,0.3,0.1,0.3l1.9,1.6c0.1,0.1,0.1,0.2,0.1,0.3l-0.6,2.5
									c0,0.1,0,0.3,0.1,0.3c0.1,0.1,0.2,0.1,0.3,0l2.2-1.3c0.1-0.1,0.2-0.1,0.3,0l2.2,1.3c0.1,0.1,0.2,0.1,0.3,0
									c0.1-0.1,0.1-0.2,0.1-0.3l-0.6-2.5c0-0.1,0-0.2,0.1-0.3L173.4,66.3z M173.4,66.3"/>
							</g>
						</g>
					</g>
					<text id="XMLID_746_" transform="matrix(1 0 0 1 151.4459 103.9338)" class="st0 st6 st7">2</text>
				</g>
				<g id="XMLID_212_">
					<path id="XMLID_213_" class="st1" d="M138.3,132.3v5.1h0.8v1.2h-0.8v0.2c0,0.7-0.2,1.3-0.5,1.8c-0.5,0.7-1.4,1.1-2.6,1.2
						l-1-1.2c0.5,0,1-0.1,1.5-0.2c0.9-0.3,1.3-0.8,1.3-1.6v-6.5L138.3,132.3z M138.1,130c0.2,0.1,0.2,0.3,0.2,0.6
						c0,0.2-0.1,0.4-0.2,0.6c-0.2,0.2-0.3,0.2-0.6,0.2c-0.2,0-0.4-0.1-0.5-0.2c-0.1-0.2-0.2-0.3-0.2-0.6c0-0.2,0.1-0.4,0.2-0.6
						c0.1-0.2,0.3-0.2,0.5-0.2C137.8,129.8,138,129.9,138.1,130z"/>
					<path id="XMLID_216_" class="st1" d="M138.8,138.6v-1.2h1.8v-5l1.3-0.1v5.1h0.8v1.2H138.8z M140.7,141.1c0,0.2-0.1,0.4-0.2,0.6
						c-0.1,0.2-0.3,0.2-0.6,0.2c-0.2,0-0.4-0.1-0.6-0.2c-0.2-0.2-0.2-0.3-0.2-0.6s0.1-0.4,0.2-0.6c0.2-0.2,0.3-0.2,0.6-0.2
						c0.2,0,0.4,0.1,0.5,0.2C140.7,140.6,140.7,140.8,140.7,141.1z M142.5,141.1c0,0.2-0.1,0.4-0.2,0.6c-0.2,0.2-0.4,0.2-0.6,0.2
						c-0.2,0-0.4-0.1-0.6-0.2c-0.1-0.1-0.2-0.3-0.2-0.6c0-0.2,0.1-0.4,0.2-0.5c0.2-0.2,0.3-0.2,0.6-0.2c0.2,0,0.4,0.1,0.5,0.2
						C142.4,140.7,142.5,140.9,142.5,141.1z"/>
					<path id="XMLID_220_" class="st1" d="M151.3,137.4v1.2H149l-4.5-0.8c-0.1,0.2-0.2,0.4-0.5,0.5c-0.2,0.2-0.5,0.2-0.7,0.2h-0.8
						v-1.2h0.8c0.3,0,0.5-0.3,0.7-0.8c0.1-0.2,0.1-0.4,0.3-0.8c0.1-0.4,0.2-0.7,0.3-0.9c0.3-1,0.6-1.6,0.9-2c0.5-0.6,1.1-0.9,2-0.9
						c0.8,0,1.5,0.4,2.1,1.2c0.5,0.8,0.8,1.7,0.8,2.8c0,0.5,0,0.9-0.1,1.3H151.3z M149.2,137.4c0.2-0.8,0.2-1.6-0.1-2.4
						c-0.2-0.7-0.6-1.3-1.1-1.6c-0.5-0.3-1-0.2-1.5,0.2c-0.6,0.5-1,1.5-1.3,2.9L149.2,137.4z"/>
					<path id="XMLID_223_" class="st1" d="M151.1,138.6v-1.2h1.8v-5l1.3-0.1v5.1h1.8v1.2H151.1z M153.2,130.1
						c0.2,0.2,0.2,0.3,0.2,0.6c0,0.2-0.1,0.4-0.2,0.6c-0.2,0.2-0.3,0.2-0.6,0.2c-0.2,0-0.4-0.1-0.6-0.2c-0.1-0.2-0.2-0.3-0.2-0.6
						c0-0.2,0.1-0.4,0.2-0.6c0.2-0.2,0.3-0.2,0.6-0.2C152.8,129.8,153,129.9,153.2,130.1z M154.9,130.1c0.1,0.1,0.2,0.3,0.2,0.6
						c0,0.2-0.1,0.4-0.2,0.6c-0.2,0.2-0.3,0.2-0.6,0.2c-0.2,0-0.4-0.1-0.6-0.2c-0.1-0.2-0.2-0.3-0.2-0.6c0-0.2,0.1-0.4,0.2-0.6
						c0.2-0.2,0.3-0.2,0.6-0.2C154.6,129.8,154.7,129.9,154.9,130.1z"/>
					<path id="XMLID_227_" class="st1" d="M156.6,137.4c0.3,0,0.6-0.3,0.7-0.8c0.1-0.2,0.1-0.4,0.2-0.8c0.1-0.4,0.2-0.7,0.3-0.9
						c0.3-1,0.7-1.6,0.9-2c0.5-0.6,1.1-0.9,2-0.9c0.9,0,1.6,0.4,2.1,1.2c0.5,0.8,0.8,1.7,0.8,2.8c0,0.5-0.1,1-0.2,1.5l-1.3,1.2
						l-4.5-0.9c-0.1,0.2-0.2,0.4-0.5,0.5c-0.2,0.2-0.5,0.2-0.7,0.2h-0.8v-1.2H156.6z M162.5,137.4c0.2-0.8,0.2-1.6-0.1-2.4
						c-0.2-0.7-0.6-1.3-1.1-1.6c-0.5-0.3-1-0.2-1.5,0.2c-0.6,0.5-1,1.5-1.3,2.9L162.5,137.4z"/>
				</g>
				<g id="XMLID_156_">
					<path id="XMLID_157_" class="st1" d="M138.3,132.3v5.1h0.8v1.2h-0.8v0.2c0,0.7-0.2,1.3-0.5,1.8c-0.5,0.7-1.4,1.1-2.6,1.2
						l-1-1.2c0.5,0,1-0.1,1.5-0.2c0.9-0.3,1.3-0.8,1.3-1.6v-6.5L138.3,132.3z M138.1,130c0.2,0.1,0.2,0.3,0.2,0.6
						c0,0.2-0.1,0.4-0.2,0.6c-0.2,0.2-0.3,0.2-0.6,0.2c-0.2,0-0.4-0.1-0.5-0.2c-0.1-0.2-0.2-0.3-0.2-0.6c0-0.2,0.1-0.4,0.2-0.6
						c0.1-0.2,0.3-0.2,0.5-0.2C137.8,129.8,138,129.9,138.1,130z"/>
					<path id="XMLID_160_" class="st1" d="M138.8,138.6v-1.2h1.8v-5l1.3-0.1v5.1h0.8v1.2H138.8z M140.7,141.1c0,0.2-0.1,0.4-0.2,0.6
						c-0.1,0.2-0.3,0.2-0.6,0.2c-0.2,0-0.4-0.1-0.6-0.2c-0.2-0.2-0.2-0.3-0.2-0.6s0.1-0.4,0.2-0.6c0.2-0.2,0.3-0.2,0.6-0.2
						c0.2,0,0.4,0.1,0.5,0.2C140.7,140.6,140.7,140.8,140.7,141.1z M142.5,141.1c0,0.2-0.1,0.4-0.2,0.6c-0.2,0.2-0.4,0.2-0.6,0.2
						c-0.2,0-0.4-0.1-0.6-0.2c-0.1-0.1-0.2-0.3-0.2-0.6c0-0.2,0.1-0.4,0.2-0.5c0.2-0.2,0.3-0.2,0.6-0.2c0.2,0,0.4,0.1,0.5,0.2
						C142.4,140.7,142.5,140.9,142.5,141.1z"/>
					<path id="XMLID_164_" class="st1" d="M151.3,137.4v1.2H149l-4.5-0.8c-0.1,0.2-0.2,0.4-0.5,0.5c-0.2,0.2-0.5,0.2-0.7,0.2h-0.8
						v-1.2h0.8c0.3,0,0.5-0.3,0.7-0.8c0.1-0.2,0.1-0.4,0.3-0.8c0.1-0.4,0.2-0.7,0.3-0.9c0.3-1,0.6-1.6,0.9-2c0.5-0.6,1.1-0.9,2-0.9
						c0.8,0,1.5,0.4,2.1,1.2c0.5,0.8,0.8,1.7,0.8,2.8c0,0.5,0,0.9-0.1,1.3H151.3z M149.2,137.4c0.2-0.8,0.2-1.6-0.1-2.4
						c-0.2-0.7-0.6-1.3-1.1-1.6c-0.5-0.3-1-0.2-1.5,0.2c-0.6,0.5-1,1.5-1.3,2.9L149.2,137.4z"/>
					<path id="XMLID_167_" class="st1" d="M151.1,138.6v-1.2h1.8v-5l1.3-0.1v5.1h1.8v1.2H151.1z M153.2,130.1
						c0.2,0.2,0.2,0.3,0.2,0.6c0,0.2-0.1,0.4-0.2,0.6c-0.2,0.2-0.3,0.2-0.6,0.2c-0.2,0-0.4-0.1-0.6-0.2c-0.1-0.2-0.2-0.3-0.2-0.6
						c0-0.2,0.1-0.4,0.2-0.6c0.2-0.2,0.3-0.2,0.6-0.2C152.8,129.8,153,129.9,153.2,130.1z M154.9,130.1c0.1,0.1,0.2,0.3,0.2,0.6
						c0,0.2-0.1,0.4-0.2,0.6c-0.2,0.2-0.3,0.2-0.6,0.2c-0.2,0-0.4-0.1-0.6-0.2c-0.1-0.2-0.2-0.3-0.2-0.6c0-0.2,0.1-0.4,0.2-0.6
						c0.2-0.2,0.3-0.2,0.6-0.2C154.6,129.8,154.7,129.9,154.9,130.1z"/>
					<path id="XMLID_171_" class="st1" d="M156.6,137.4c0.3,0,0.6-0.3,0.7-0.8c0.1-0.2,0.1-0.4,0.2-0.8c0.1-0.4,0.2-0.7,0.3-0.9
						c0.3-1,0.7-1.6,0.9-2c0.5-0.6,1.1-0.9,2-0.9c0.9,0,1.6,0.4,2.1,1.2c0.5,0.8,0.8,1.7,0.8,2.8c0,0.5-0.1,1-0.2,1.5l-1.3,1.2
						l-4.5-0.9c-0.1,0.2-0.2,0.4-0.5,0.5c-0.2,0.2-0.5,0.2-0.7,0.2h-0.8v-1.2H156.6z M162.5,137.4c0.2-0.8,0.2-1.6-0.1-2.4
						c-0.2-0.7-0.6-1.3-1.1-1.6c-0.5-0.3-1-0.2-1.5,0.2c-0.6,0.5-1,1.5-1.3,2.9L162.5,137.4z"/>
				</g>
				<g id="XMLID_625_">
					<path id="XMLID_77_" class="st1" d="M138.3,132.3v5.1h0.8v1.2h-0.8v0.2c0,0.7-0.2,1.3-0.5,1.8c-0.5,0.7-1.4,1.1-2.6,1.2l-1-1.2
						c0.5,0,1-0.1,1.5-0.2c0.9-0.3,1.3-0.8,1.3-1.6v-6.5L138.3,132.3z M138.1,130c0.2,0.1,0.2,0.3,0.2,0.6c0,0.2-0.1,0.4-0.2,0.6
						c-0.2,0.2-0.3,0.2-0.6,0.2c-0.2,0-0.4-0.1-0.5-0.2c-0.1-0.2-0.2-0.3-0.2-0.6c0-0.2,0.1-0.4,0.2-0.6c0.1-0.2,0.3-0.2,0.5-0.2
						C137.8,129.8,138,129.9,138.1,130z"/>
					<path id="XMLID_80_" class="st1" d="M138.8,138.6v-1.2h1.8v-5l1.3-0.1v5.1h0.8v1.2H138.8z M140.7,141.1c0,0.2-0.1,0.4-0.2,0.6
						c-0.1,0.2-0.3,0.2-0.6,0.2c-0.2,0-0.4-0.1-0.6-0.2c-0.2-0.2-0.2-0.3-0.2-0.6s0.1-0.4,0.2-0.6c0.2-0.2,0.3-0.2,0.6-0.2
						c0.2,0,0.4,0.1,0.5,0.2C140.7,140.6,140.7,140.8,140.7,141.1z M142.5,141.1c0,0.2-0.1,0.4-0.2,0.6c-0.2,0.2-0.4,0.2-0.6,0.2
						c-0.2,0-0.4-0.1-0.6-0.2c-0.1-0.1-0.2-0.3-0.2-0.6c0-0.2,0.1-0.4,0.2-0.5c0.2-0.2,0.3-0.2,0.6-0.2c0.2,0,0.4,0.1,0.5,0.2
						C142.4,140.7,142.5,140.9,142.5,141.1z"/>
					<path id="XMLID_84_" class="st1" d="M151.3,137.4v1.2H149l-4.5-0.8c-0.1,0.2-0.2,0.4-0.5,0.5c-0.2,0.2-0.5,0.2-0.7,0.2h-0.8
						v-1.2h0.8c0.3,0,0.5-0.3,0.7-0.8c0.1-0.2,0.1-0.4,0.3-0.8c0.1-0.4,0.2-0.7,0.3-0.9c0.3-1,0.6-1.6,0.9-2c0.5-0.6,1.1-0.9,2-0.9
						c0.8,0,1.5,0.4,2.1,1.2c0.5,0.8,0.8,1.7,0.8,2.8c0,0.5,0,0.9-0.1,1.3H151.3z M149.2,137.4c0.2-0.8,0.2-1.6-0.1-2.4
						c-0.2-0.7-0.6-1.3-1.1-1.6c-0.5-0.3-1-0.2-1.5,0.2c-0.6,0.5-1,1.5-1.3,2.9L149.2,137.4z"/>
					<path id="XMLID_87_" class="st1" d="M151.1,138.6v-1.2h1.8v-5l1.3-0.1v5.1h1.8v1.2H151.1z M153.2,130.1
						c0.2,0.2,0.2,0.3,0.2,0.6c0,0.2-0.1,0.4-0.2,0.6c-0.2,0.2-0.3,0.2-0.6,0.2c-0.2,0-0.4-0.1-0.6-0.2c-0.1-0.2-0.2-0.3-0.2-0.6
						c0-0.2,0.1-0.4,0.2-0.6c0.2-0.2,0.3-0.2,0.6-0.2C152.8,129.8,153,129.9,153.2,130.1z M154.9,130.1c0.1,0.1,0.2,0.3,0.2,0.6
						c0,0.2-0.1,0.4-0.2,0.6c-0.2,0.2-0.3,0.2-0.6,0.2c-0.2,0-0.4-0.1-0.6-0.2c-0.1-0.2-0.2-0.3-0.2-0.6c0-0.2,0.1-0.4,0.2-0.6
						c0.2-0.2,0.3-0.2,0.6-0.2C154.6,129.8,154.7,129.9,154.9,130.1z"/>
					<path id="XMLID_91_" class="st1" d="M156.6,137.4c0.3,0,0.6-0.3,0.7-0.8c0.1-0.2,0.1-0.4,0.2-0.8c0.1-0.4,0.2-0.7,0.3-0.9
						c0.3-1,0.7-1.6,0.9-2c0.5-0.6,1.1-0.9,2-0.9c0.9,0,1.6,0.4,2.1,1.2c0.5,0.8,0.8,1.7,0.8,2.8c0,0.5-0.1,1-0.2,1.5l-1.3,1.2
						l-4.5-0.9c-0.1,0.2-0.2,0.4-0.5,0.5c-0.2,0.2-0.5,0.2-0.7,0.2h-0.8v-1.2H156.6z M162.5,137.4c0.2-0.8,0.2-1.6-0.1-2.4
						c-0.2-0.7-0.6-1.3-1.1-1.6c-0.5-0.3-1-0.2-1.5,0.2c-0.6,0.5-1,1.5-1.3,2.9L162.5,137.4z"/>
				</g>
			</g>
		</g>
	</g>
	<g id="XMLID_621_">
		<circle id="XMLID_624_" class="st1" cx="124" cy="258.8" r="7.8"/>
		<circle id="XMLID_623_" class="st1" cx="150.7" cy="258.8" r="7.1"/>
		<circle id="XMLID_622_" class="st1" cx="176.8" cy="258.8" r="7.1"/>
	</g>
</g>
</svg>
